<?xml version="1.0" standalone="no"?>
<!DOCTYPE svg PUBLIC "-//W3C//DTD SVG 1.1//EN" "http://www.w3.org/Graphics/SVG/1.1/DTD/svg11.dtd" >
<svg>
<metadata>
Created by FontForge 20090914 at Mon Jan  9 17:43:34 2012
 By www-data
&#194;&#169; Stock Graphics
</metadata>
<defs>
<font id="OpticonOne1" horiz-adv-x="1577" >
  <font-face 
    font-family="Opticon"
    font-weight="400"
    font-stretch="normal"
    units-per-em="2700"
    panose-1="0 0 4 0 0 0 0 0 0 0"
    ascent="2160"
    descent="-540"
    x-height="1220"
    cap-height="2242"
    bbox="-258.999 -2242 3560 3024"
    underline-thickness="14"
    underline-position="-128"
    unicode-range="U+0020-U+F002"
  />
<missing-glyph horiz-adv-x="1350" 
d="M169 0v1047h1012v-1047h-1012zM338 169h675v709h-675v-709z" />
    <glyph glyph-name=".notdef" horiz-adv-x="1350" 
d="M169 0v1047h1012v-1047h-1012zM338 169h675v709h-675v-709z" />
    <glyph glyph-name="space" unicode=" " horiz-adv-x="222" 
 />
    <glyph glyph-name="exclam" unicode="!" horiz-adv-x="724" 
d="M297 540l-32 1701l216 1l-44 -1702h-140zM274 0l1 173h195v-173h-196z" />
    <glyph glyph-name="quotedbl" unicode="&#x22;" horiz-adv-x="1091" 
d="M281 1874v367l173 1v-368h-173zM659 1874v368l173 -1v-367h-173z" />
    <glyph glyph-name="numbersign" unicode="#" horiz-adv-x="2997" 
d="M2565 1895l-265 -464h540v-184h-648l-324 -577h540v-184h-642l-313 -556l-163 92l265 464h-659l-318 -556l-157 92l259 464h-534v184h642l324 577h-534v184h642l314 556l162 -92l-270 -464h664l318 556zM1669 656l329 613h-686l-326 -613h683z" />
    <glyph glyph-name="dollar" unicode="$" horiz-adv-x="1615" 
d="M1314 970c110.667 -110.667 166.001 -248.668 166.001 -414.001c-13.333 -122.667 -64 -228 -152 -316c-100.667 -100.667 -237.334 -168 -410.001 -202v-130h-217v119c-191.333 16.667 -349.333 81.334 -474 194.001v0l-97 87l140 162l97 -87
c88 -75.333 199.667 -122 335 -140v745c-147.333 34 -279.333 97.667 -396 191c-110.667 110.667 -166 248.334 -166 413.001c13.333 123.333 64.333 229 153 317c36.667 36 74 65.667 112 89c90 54 189 91.667 297 113v135h216l1 -124
c194 -16.667 352 -81.334 474 -194.001l-140 -162c-90 78 -201.667 123 -335 135v-740c198.667 -45.333 330.667 -109 396 -191zM470.001 1323c54.667 -50 132 -89.667 232 -119l-1 691c-58.667 -14.667 -119.667 -41.667 -183 -81c-28 -17.333 -53.333 -37.333 -76 -60
c-56 -56 -84.667 -115 -86 -177c-2 -92 28.667 -169.667 92 -233c12 -12 19.333 -19 22 -21zM1264 571.999c3.33301 90.667 -27.333 168.334 -92 233.001c-12 12 -19.333 19 -22 21c-48 48 -125.333 87.667 -232 119l1 -691c66 16.667 127 43.667 183 81
c32 21.333 57 41 75 59c56 55.333 85 114.666 87 177.999z" />
    <glyph glyph-name="percent" unicode="%" horiz-adv-x="1976" 
d="M1463 723c102 0 188.834 -35.835 260.501 -107.502s107.5 -158.167 107.5 -259.5c0 -103.333 -35.5 -191.166 -106.5 -263.499s-158.167 -108.5 -261.5 -108.5c-104.667 0 -192.834 35.833 -264.501 107.5s-107.5 159.834 -107.5 264.501
c0 102.667 35.5 189.5 106.5 260.5s159.5 106.5 265.5 106.5zM1463 161.998c53.333 0 97.998 18.833 133.998 56.5s54.333 83.5 55 137.5c0.666992 48 -13.666 86.667 -42.999 116c-6.66699 6.66699 -12 11.334 -16 14.001c-7.33301 9.33301 -11.666 14.666 -12.999 15.999
c-28.667 28.667 -67.667 43 -117 43c-52 0 -92.667 -14.667 -122 -44c-6.66699 -6.66699 -11 -11.667 -13 -15c-39.333 -38.667 -59 -82 -59 -130c0 -51.333 19.5 -96.5 58.5 -135.5s84.167 -58.5 135.5 -58.5zM1463 1988l157 -94l-1112 -1964l-157 92zM507.999 1199
c-102 0 -190.335 36.001 -265.002 108.001c-72 69.333 -108 155.666 -108 258.999c0 105.333 35.833 193.833 107.5 265.5s160.167 107.5 265.5 107.5c104.667 0 192.834 -35.833 264.501 -107.5s107.5 -160.167 107.5 -265.5c0 -102.667 -36.167 -189.5 -108.5 -260.5
s-160.166 -106.5 -263.499 -106.5zM318.997 1566c0 -51.333 18.6689 -95.668 56.002 -133.001s81.666 -56 132.999 -56c52.667 0 98.167 18.333 136.5 55s57.5 81.334 57.5 134.001c0 51.333 -19.5 96.5 -58.5 135.5s-84.167 58.5 -135.5 58.5
c-52.667 0 -97.334 -19.167 -134.001 -57.5s-55 -83.833 -55 -136.5z" />
    <glyph glyph-name="ampersand" unicode="&#x26;" horiz-adv-x="1685" 
d="M1544 475c0 -75.333 -25 -143.667 -75 -205l151 -150l-113 -115l-151 157c-146.667 -108 -328.667 -162 -546 -162c-152.667 -0 -293.667 34.333 -423 103c-68 36 -121.333 73.667 -160 113c-80 81.333 -120 167.666 -120 258.999c0 136.667 84 246 252 328
c62.667 30.667 148.334 67.334 257.001 110.001c-76 92 -114 210.667 -114 356c0 172 46.667 304.667 140 398c51.333 51.333 107.333 77 168 77c67.333 0 134 -27 200 -81c90 -90 135 -221.333 135 -394c0 -162 -49 -291.667 -147 -389
c-20.667 -20.667 -47.334 -42.334 -80.001 -65.001l437 -432c18 34.667 27 65.334 27 92.001v22h162v-22zM745 998.999l60.002 -65h5c33.333 14 63.333 34.333 90 61c66 66 99 157.333 99 274c0 92.667 -28.333 186.334 -85 281.001c-26.667 21.333 -61.334 32 -104.001 32
c-20.667 -2.66699 -40.334 -13.334 -59.001 -32.001c-61.333 -77.333 -92 -171 -92 -281c0 -118 28.667 -208 86 -270zM810.002 161.999c183.333 0 329 34.333 437 103l-507 507c-209.333 -52.667 -350 -115 -422 -187c-35.333 -35.333 -53 -72.333 -53 -111
c0 -50 23.333 -98 70 -144c114 -112 272.333 -168 475 -168z" />
    <glyph glyph-name="quotesingle" unicode="'" horiz-adv-x="648" 
d="M243 1874v367h173v-367h-173z" />
    <glyph glyph-name="parenleft" unicode="(" horiz-adv-x="1021" 
d="M300 977v-21l542 -859l-150 -97l-535 858c-18 30.667 -27 67 -27 109c0 38 9 72 27 102l540 897l152 -98l-291 -472l-189 -305c-39.333 -64 -62.333 -102 -69 -114z" />
    <glyph glyph-name="parenright" unicode=")" horiz-adv-x="1021" 
d="M721 977c-6.66699 12 -43 71.333 -109 178l-439 713l151 98l540 -897c18 -30 27 -64 27 -102c0 -42 -9 -78.333 -27 -109l-163 -262l-371 -596l-153 97l544 859v21z" />
    <glyph glyph-name="asterisk" unicode="*" horiz-adv-x="821" 
d="M475 1701h-129v162l-141 -81l-65 113l141 76l-141 81l65 113l141 -81v157l129 1l-1 -158l136 81l65 -113l-135 -81l135 -76l-65 -113l-135 81v-162z" />
    <glyph glyph-name="plus" unicode="+" horiz-adv-x="1207" 
d="M510 869v351h173l-1 -351h352v-172h-351v-351h-173v351h-351v172h351z" />
    <glyph glyph-name="comma" unicode="," horiz-adv-x="648" 
d="M86 -38l281 281l119 -119l-281 -281z" />
    <glyph glyph-name="hyphen" unicode="-" horiz-adv-x="923" 
d="M184 680v173h540v-173h-540z" />
    <glyph glyph-name="hyphen" unicode="&#x2010;" horiz-adv-x="923" 
d="M184 680v173h540v-173h-540z" />
    <glyph glyph-name="period" unicode="." horiz-adv-x="583" 
d="M194 0v173h195v-173h-195z" />
    <glyph glyph-name="slash" unicode="/" horiz-adv-x="1253" 
d="M-11 5l1113 1966l156 -92l-1118 -1955z" />
    <glyph glyph-name="zero" unicode="0" horiz-adv-x="1647" 
d="M1183 1032c70 -79.333 121.999 -152.333 155.999 -219c90 -174.667 135 -375.334 135 -602.001s-45 -427.667 -135 -603c-42 -81.333 -94 -154 -156 -218l-17 -19c-95.333 -95.333 -208.666 -143 -339.999 -143c-129.333 0 -241.666 47 -336.999 141
c-4 5.33301 -10.333 12.333 -19 21c-124.667 124.667 -210.334 292.334 -257.001 503.001c-23.333 103.333 -35 209.333 -35 318c0 356 95.667 629.667 287 821c108 108 228.333 162 361 162c132 0 245.333 -48 340 -144c4 -4 9.66699 -10 17 -18zM825.999 -567
c86.667 0 165.667 44.334 237 133.001c54.667 67.333 98.667 150.666 132 249.999c42 123.333 63 255 63 395c0 125.333 -17.333 246.333 -52 363c-40.667 135.333 -99 241 -175 317c-65.333 65.333 -133.666 98 -204.999 98c-86.667 0 -166.334 -45 -239.001 -135
c-55.333 -69.333 -99.333 -154 -132 -254c-40.667 -123.333 -61 -253 -61 -389c0 -184.667 35.667 -352.667 107 -504c86 -182.667 194.333 -274 325 -274z" />
    <glyph glyph-name="one" unicode="1" horiz-adv-x="788" 
d="M189 1199h378l-1 -108l1 -1183h-216v1075h-161z" />
    <glyph glyph-name="two" unicode="2" horiz-adv-x="1571" 
d="M967 578c0 -172.667 -65.001 -324 -195.001 -454h637v-216h-1123c-1.33301 0 -3 -0.333008 -5 -1h-6v0l-20 1l-1 216h32c135.333 0 248.333 45 339 135s136 196.333 136 319c0 108 -46.833 208.833 -140.5 302.5s-209.167 140.5 -346.5 140.5h-19l-1 216h21
c90.667 0 178 -16 262 -48c88.667 -33.333 161.334 -80 218.001 -140c4 -2.66699 9.66699 -8.66699 17 -18c130 -130 195 -281 195 -453z" />
    <glyph glyph-name="three" unicode="3" horiz-adv-x="1420" 
d="M697 464c151.333 -58 266.332 -126.335 344.999 -205.002c108 -108 162 -230.333 162 -367c0 -129.333 -54 -248 -162 -356l-14 -14c-86 -86 -199.667 -153.667 -341 -203c-147.333 -51.333 -283.666 -77 -408.999 -77c-15.333 0 -30.666 0.333008 -45.999 1l-21 1v216
h21c293.333 0 512 72 656 216c66.667 66.667 100 138.667 100 216c-0.666992 90.667 -43.667 172.334 -129 245.001c-66.667 56.667 -150.667 102 -252 136c-103.333 34.667 -211.333 52 -324 52c-16.667 0 -33.667 -0.333008 -51 -1v216c168 -8 294 30 378 114
c36 36 54 73.667 54 113c0 86 -70.667 150.667 -212 194c-70 22 -143.333 33 -220 33h-21v216l21 1c93.333 4.66699 192.666 -12.666 297.999 -51.999c88.667 -33.333 165.667 -81.333 231 -144c6 -4 13.333 -11 22 -21c64.667 -63.333 97 -139 97 -227
c0 -86.667 -39.667 -169.667 -119 -249c-28.667 -28.667 -50 -46.667 -64 -54z" />
    <glyph glyph-name="four" unicode="4" horiz-adv-x="1129" 
d="M983 1220v-2214h-216v994h-744l128 173zM432 204l335 1v416z" />
    <glyph glyph-name="five" unicode="5" horiz-adv-x="1496" 
d="M470 567c132.667 -0.666992 263.668 -27 393.001 -79c134 -53.333 240.667 -118.666 320 -195.999c108 -105.333 162 -228 162 -368c0 -129.333 -54 -248 -162 -356c-124.667 -124.667 -291.667 -210.334 -501 -257.001c-102.667 -23.333 -209.334 -35 -320.001 -35h-107
v222l107 -6c120.667 -6.66699 239 7.33301 355 42c127.333 38.667 230 97 308 175c69.333 69.333 104 141 104 215c0 86.667 -45 166.667 -135 240c-69.333 56.667 -153.333 102 -252 136c-116 40 -242.667 58.667 -380 56l-108 -2v845h691v-216h-475v-416z" />
    <glyph glyph-name="six" unicode="6" horiz-adv-x="1685" 
d="M859 432c230.667 0 410.67 -64.668 540.003 -194.001c2.66699 -2 5.66699 -4.66699 9 -8l6 -5c62 -61.333 93 -140 93 -236c0 -103.333 -33.333 -183.333 -100 -240l-8 -8c-130 -130 -310.333 -195 -541 -195c-106.667 0 -206.334 17.333 -299.001 52
c-88.667 34 -165.334 81.333 -230.001 142c-7.33301 4.66699 -13 10 -17 16c-30.667 28.667 -55.334 65.334 -74.001 110.001c-18 41.333 -27 82.333 -27 123v1210h216v-913c107.333 97.333 251.333 146 432 146zM859.003 -238.001c175.333 0 305.333 42.334 390 127.001
c33.333 33.333 50 66.666 50 99.999c0 85.333 -70.667 150 -212 194c-70 22 -146 33 -228 33c-171.333 0 -297.333 -40.333 -378 -121c-36 -36 -54 -71.333 -54 -106c0 -84 71.667 -148.667 215 -194c68 -22 140.333 -33 217 -33z" />
    <glyph glyph-name="seven" unicode="7" horiz-adv-x="1053" 
d="M86 1199h881v-108l-346 -2047h-208l324 1939h-651v216z" />
    <glyph glyph-name="eight" unicode="8" horiz-adv-x="1647" 
d="M1139 443c82.667 -51.333 133.333 -87.333 152 -108c122 -132.667 183 -284 183 -454c0 -180.667 -61.333 -331.667 -184 -453c-4 -4.66699 -10.333 -11.667 -19 -21c-116 -116 -260.667 -174 -434 -174c-180.667 0 -329 58 -445 174c-50.667 58.667 -80 93.667 -88 105
c-26 35.333 -48.667 76.333 -68 123c-31.333 79.333 -47 161 -47 245c0 238 111.667 425.667 335 563c-86.667 88 -130 192.333 -130 313c0 124.667 42.667 229.667 128 315s190.333 128 315 128c115.333 0 210 -37 284 -111c8 -8 13.667 -14.333 17 -19
c87.333 -86.667 131 -191 131 -313s-43.333 -226.333 -130 -313zM663.999 595c51.333 -51.333 108.999 -77 172.999 -77c54.667 0 102.334 20 143.001 60c48.667 48 73 107.333 73 178c0 65.333 -21.5 119.5 -64.5 162.5s-93.5 64.5 -151.5 64.5
c-65.333 0 -119.5 -21.5 -162.5 -64.5s-64.5 -97.167 -64.5 -162.5c0 -71.333 18 -125 54 -161zM836.998 -551c119.333 0 219.167 41.834 299.5 125.501s120.833 185.5 121.5 305.5c0.666992 62 -9.33301 120.167 -30 174.5s-50.334 100.833 -89.001 139.5
c-87.333 86.667 -188 130 -302 130c-121.333 0 -225.666 -43.333 -312.999 -130c-79.333 -78.667 -119 -183.334 -119 -314.001c0 -120.667 39.667 -221 119 -301c86 -86.667 190.333 -130 313 -130z" />
    <glyph glyph-name="nine" unicode="9" horiz-adv-x="1571" 
d="M767 319c-228 0 -408 64.666 -540 193.999c-3.33301 3.33301 -9 8.33301 -17 15c-61.333 62 -91.666 139.667 -90.999 233c0.666992 96 31.667 174.667 93 236c3.33301 3.33301 8.33301 7.66602 15 12.999c129.333 129.333 309.333 194 540 194
c107.333 0 207.666 -17.333 300.999 -52c78 -29.333 154 -76.666 228 -141.999c3.33301 -2 9.33301 -7.33301 18 -16c67.333 -67.333 101 -144.666 101 -231.999v-1210h-216v912c-109.333 -96.667 -253.333 -145 -432 -145zM767 987.999
c-176.667 0 -307.334 -42.333 -392.001 -127c-32 -32 -48 -65.333 -48 -100c0 -36 17 -71 51 -105c80.667 -80.667 210.334 -121 389.001 -121c173.333 0 299.333 40 378 120c36 36.667 54 72 54 106c0 48.667 -29.333 94 -88 136c-32 22.667 -73.333 42 -124 58
c-68.667 22 -142 33 -220 33z" />
    <glyph glyph-name="colon" unicode=":" horiz-adv-x="583" 
d="M197 0v173h195v-173h-195zM197 594v173h195v-173h-195z" />
    <glyph glyph-name="semicolon" unicode=";" horiz-adv-x="583" 
d="M190 594l-1 173h194v-173h-193zM124 -38l281 281l119 -119l-281 -281z" />
    <glyph glyph-name="less" unicode="&#x3c;" horiz-adv-x="805" 
d="M589 1647l129 -130l-405 -356l405 -356l-129 -130l-508 486l65 65z" />
    <glyph glyph-name="equal" unicode="=" horiz-adv-x="1091" 
d="M86 929v173h875v-174zM86 437v173h875l1 -173h-876z" />
    <glyph glyph-name="greater" unicode="&#x3e;" horiz-adv-x="805" 
d="M211 1647l507 -486l-65 -65l-442 -421l-130 130l405 356l-405 356z" />
    <glyph glyph-name="question" unicode="?" horiz-adv-x="1118" 
d="M308 1836c224 0 396.668 -61.334 518.001 -184.001c72.667 -73.333 108.667 -152.333 108 -237c-1.33301 -157.333 -99 -276.666 -293 -357.999c-74 -30.667 -156.333 -50 -247 -58v-459h-173v626h87c176 0 308.667 45.333 398 136c37.333 38 56 75.667 56 113
s-18.667 75 -56 113c-88.667 90 -221.334 135 -398.001 135h-22v173h22zM211.001 -0.000976562v173h194l-1 -173h-193z" />
    <glyph glyph-name="at" unicode="@" horiz-adv-x="2749" 
d="M2750 2403l162 -91l-578 -994h259v-184h-362l-551 -950h260v-184h-573l81 135zM1173 -43l-157.003 85.999l54 97c-153.333 -64.667 -308 -97 -464 -97c-184.667 0 -321.667 44.333 -411 133c-16.667 16.667 -32.667 37.334 -48 62.001c-22 36 -33 78.333 -33 127
c0.666992 94.667 44.334 186 131.001 274c114.667 116.667 274.334 200.667 479.001 252c98.667 25.333 194.334 38 287.001 38c184.667 0 320.667 -43.667 408 -131c8 -8 14 -14.333 18 -19l206 355h-540v184h858l-81 -141zM605.997 226.999
c271.333 0 476.999 70.002 616.999 210.002c31.333 31.333 56 64 74 98v0c16 26.667 23.667 51 23 73c0 17.333 -2.33301 30.666 -7 39.999c-4 6 -10.333 13.333 -19 22c-54.667 54 -149 81 -283 81c-111.333 0 -224.666 -20.667 -339.999 -62
c-124.667 -44.667 -223.334 -103.334 -296.001 -176.001c-51.333 -51.333 -75.666 -100 -72.999 -146c-2 -21.333 6 -41 24 -59c54.667 -54 148 -81 280 -81z" />
    <glyph glyph-name="A" unicode="A" horiz-adv-x="1987" 
d="M913 2290l1107 -2295l-195 -98l-502 1043h-772l-459 -1038l-195 87zM637 1156h594l-308 629z" />
    <glyph glyph-name="B" unicode="B" horiz-adv-x="1760" 
d="M1231 1172c202.667 -74.667 337.666 -192.33 404.999 -352.997c28.667 -68.667 43 -138.334 43 -209.001c0 -144.667 -55.333 -272.334 -166 -383.001c-151.333 -151.333 -349.666 -227 -594.999 -227h-761v2242l108 -1h540c186.667 0 343 -63 469 -189
c118.667 -118.667 178 -261 178 -427c0 -77.333 -15.333 -152 -46 -224s-75 -137.667 -133 -197c-14.667 -14.667 -28.667 -25.334 -42 -32.001zM1123 1901c-85.333 82.667 -191.333 124 -318 124h-422v-815h422c128 0 232 38.333 312 115s120 176.667 120 300
c0 110.667 -38 202.667 -114 276zM917.999 216.004c192.667 0 340.333 51.334 443 154.001c68 68 102 148 102 240c0 103.333 -34 189.666 -102 258.999c-102.667 104.667 -250 157 -442 157h-536v-810h535z" />
    <glyph glyph-name="C" unicode="C" horiz-adv-x="2279" 
d="M1328 124c252 0 475.335 97.3311 670.002 291.998l157 -151c-236.667 -234 -512.334 -351 -827.001 -351c-316.667 0 -588.334 113.333 -815.001 340c-234 234 -351 516.667 -351 848c0 212 52 409.333 156 592s246.667 328.334 428 437.001c178 106 372 159 582 159
c316.667 0 588.667 -113.667 816 -341l-151 -151c-187.333 187.333 -409 281 -665 281c-248 0 -467.333 -95.333 -658 -286c-185.333 -185.333 -278 -415.666 -278 -690.999c0 -277.333 92.667 -508 278 -692c192 -190.667 411.333 -286 658 -286z" />
    <glyph glyph-name="D" unicode="D" horiz-adv-x="2068" 
d="M961 2241c241.333 0 455.668 -93.666 643.001 -280.999c224 -224 336 -504.667 336 -842c0 -162 -28.833 -315.833 -86.5 -461.5s-140.834 -272.834 -249.501 -381.501c-183.333 -183.333 -397.333 -275 -642 -275h-784l-1 108v2133h784zM961.002 216.001
c184.667 0 346 67.668 484 203.001c24.667 24 48.667 51.667 72 83c130 172.667 195 378 195 616c0 291.333 -84.667 521.666 -254 690.999c-94 94 -200.667 157.333 -320 190c-58.667 16.667 -117.667 25 -177 25l-557 1l1 -1809h556z" />
    <glyph glyph-name="E" unicode="E" horiz-adv-x="1836" 
d="M383 1058v-842h1307v-216h-1533v2242l108 -1h972v-211h-854v-756l1080 -1v-214z" />
    <glyph glyph-name="F" unicode="F" 
d="M134 0l1 108v2133h1081v-211l-854 -1v-755h1080v-216h-1080v-1058h-228z" />
    <glyph glyph-name="G" unicode="G" horiz-adv-x="2268" 
d="M1253 1237l867 -0.000976562v-951l-33 -32c-78.667 -76 -160 -138.333 -244 -187c-182 -106 -378.667 -159 -590 -159c-164.667 0 -323 34.333 -475 103s-282.333 165 -391 289c-122.667 139.333 -207.667 300.333 -255 483c-26.667 102.667 -40 207 -40 313
c0 210.667 52.333 408.834 157 594.501s246.5 331 425.5 436s371.833 157.5 578.5 157.5c316.667 0 588.334 -113.333 815.001 -340l-151 -151c-183.333 183.333 -404.666 275 -663.999 275c-256 0 -475.333 -91.333 -658 -274s-274.334 -415.334 -275.001 -698.001
c0 -281.333 91.667 -513.666 275 -696.999s402.666 -275 657.999 -275c247.333 0 461.333 84.667 642 254v643h-642v216z" />
    <glyph glyph-name="H" unicode="H" horiz-adv-x="2020" 
d="M1625 1274v968l227 -1l1 -2241h-228v1058l-1231 1l1 -1059h-228v2242l227 -1v-968z" />
    <glyph glyph-name="I" unicode="I" horiz-adv-x="783" 
d="M529 2242v-2242h-259v2242h259z" />
    <glyph glyph-name="J" unicode="J" horiz-adv-x="1771" 
d="M1323 687l-0.000976562 1554h238v-1555c0 -206.667 -72 -379.667 -216 -519c-68 -66 -151.333 -119.333 -250 -160c-89.333 -37.333 -182.666 -56 -279.999 -56c-204 0 -378.167 71.5 -522.5 214.5s-216.5 316.5 -216.5 520.5v21l216 -1v-19
c0 -146.667 50.333 -269.334 151 -368.001c103.333 -101.333 227.333 -152 372 -152c139.333 0 258 49 356 147c101.333 101.333 152 225.666 152 372.999z" />
    <glyph glyph-name="K" unicode="K" horiz-adv-x="1971" 
d="M383 815v-815h-226v2242l226 -1v-1080l972 1155l168 -140l-670 -799l1106 -1307l-161 -140l-1085 1280z" />
    <glyph glyph-name="L" unicode="L" horiz-adv-x="1804" 
d="M432 2246v-2030h1193v-216h-1452v2246h259z" />
    <glyph glyph-name="M" unicode="M" horiz-adv-x="3067" 
d="M2954 0h-227v1701l-1140 -1679l-91 129l-1080 1528v-1679h-226l-1 2354l211 -275l1182 -1674l1372 1998v-2403z" />
    <glyph glyph-name="N" unicode="N" horiz-adv-x="2608" 
d="M373 2203l1836 -1852v1891l226 -1v-2419l-194 189l-1836 1852l-1 -1863h-226l-1 2392z" />
    <glyph glyph-name="O" unicode="O" horiz-adv-x="2376" 
d="M1172 2284c274 0 511.334 -100.668 712.001 -302.001c154 -154.667 259.333 -341.667 316 -561c28 -108 42 -216.333 42 -325c0 -352 -119 -647 -357 -885c-202 -202 -439.667 -303 -713 -303c-272.667 0 -510.334 101 -713.001 303
c-152.667 152 -257.334 338 -314.001 558c-28 106.667 -42 215.667 -42 327c0 230.667 55.333 442.334 166 635.001c152 266 365.333 438 640 516c86.667 24.667 174.334 37 263.001 37zM1172 112.999c209.333 0 392.332 78.334 548.999 235.001
c195.333 195.333 293 444.666 293 747.999c0 299.333 -93.667 542.333 -281 729c-170 169.333 -357 254 -561 254c-205.333 0 -392.666 -84.667 -561.999 -254c-186.667 -186.667 -280 -429.667 -280 -729c0 -298.667 93.333 -541.667 280 -729
c168.667 -169.333 356 -254 562 -254z" />
    <glyph glyph-name="P" unicode="P" horiz-adv-x="1685" 
d="M842 2241c206 0 379.001 -70.332 519.001 -210.999c122 -122.667 183 -266.667 183 -432c0 -168.667 -61.333 -314.334 -184 -437.001c-140.667 -140.667 -313.334 -211 -518.001 -211h-475l1 -950h-228v2242l108 -1h594zM842.001 1166c145.333 0 263.333 45.667 354 137
c81.333 82 122 180.333 122 295c0 118.667 -38 216 -114 292c-90 90 -211 135 -363 135l-474 -1v-858h475z" />
    <glyph glyph-name="Q" unicode="Q" horiz-adv-x="2414" 
d="M1247 2290c268.667 0 505.998 -102.666 711.998 -307.999c238.667 -238 358 -531.333 358 -880c0 -352.667 -119 -648 -357 -886c-161.333 -161.333 -362.666 -256.666 -603.999 -285.999v-157h-217v157c-241.333 28.667 -442.666 124 -603.999 286
c-238 239.333 -357 534.666 -357 885.999s118.667 645.666 356 882.999c203.333 203.333 441 305 713 305zM1355 107.001c166.667 26.667 313.333 103.331 440 229.998c196.667 196.667 295 446 295 748c0 298 -93.667 541 -281 729c-168.667 169.333 -356 254 -562 254
c-204 0 -391 -84.667 -561 -254c-187.333 -186.667 -281 -429.667 -281 -729c0 -141.333 24 -275.666 72 -402.999c51.333 -133.333 121 -243.666 209 -330.999c136.667 -135.333 287.667 -216.333 453 -243v327h217z" />
    <glyph glyph-name="R" unicode="R" horiz-adv-x="1895" 
d="M1273 1145c-1.33301 -2 -6.33301 -7.33301 -15 -16c-59.333 -59.333 -131.333 -104.333 -216 -135l918 -913l-163 -173l-1036 1042h-367l1 -950h-228v2246h648c180 0 333 -63.333 459 -190s189 -279.667 189 -459c0 -86 -16.333 -167.667 -49 -245
c-29.333 -69.333 -76.333 -138.333 -141 -207zM394 2030v-863.998h421c119.333 0 219.5 42.167 300.5 126.5s121.5 186.166 121.5 305.499c0 123.333 -39.5 226.166 -118.5 308.499s-180.167 123.5 -303.5 123.5h-421z" />
    <glyph glyph-name="S" unicode="S" horiz-adv-x="1793" 
d="M1442 972l25.001 -24c120 -120 180 -272.333 180 -457c0 -121.333 -51.333 -233.666 -154 -336.999c-37.333 -37.333 -85 -74.333 -143 -111c-146.667 -92 -311.334 -138 -494.001 -138c-26.667 0 -52.667 1 -78 3c-218.667 17.333 -397 89.333 -535 216v0l-113 97
l140 162l113 -97v-5c102.667 -91.333 239.667 -145 411 -161c6 0 15.167 -0.666992 27.5 -2s21.5 -2 27.5 -2c143.333 0 272.666 37 387.999 111c33.333 21.333 61.333 43.333 84 66c64.667 64.667 97.667 138 99 220c2.66699 117.333 -32.333 212.333 -105 285
c-8 8 -14.333 13.667 -19 17c-65.333 60 -205.666 114 -420.999 162c-247.333 55.333 -420.333 127.333 -519 216c-4 6 -9 11 -15 15c-126.667 129.333 -190 284.666 -190 465.999c0 123.333 52.333 237.333 157 342c42 42 88.667 79.333 140 112
c142.667 90.667 307.334 136.667 494.001 138c132 0.666992 257 -23 375 -71c91.333 -36.667 170.666 -86 237.999 -148l-146 -162c-102 98 -237.333 152 -406 162l-24 2h-29c-150.667 0 -280 -33.333 -388 -100c-29.333 -18 -56.666 -39.667 -81.999 -65
c-68 -68 -102 -143.333 -102 -226c0 -120.667 35.333 -216.334 106 -287.001c3.33301 -3.33301 9.33301 -8.66602 18 -15.999c73.333 -66 213.666 -121.667 420.999 -167c250.667 -54.667 423.667 -126.667 519 -216z" />
    <glyph glyph-name="T" unicode="T" horiz-adv-x="2106" 
d="M1161 0h-259v2041h-859v205h1944v-205h-826v-2041z" />
    <glyph glyph-name="U" unicode="U" horiz-adv-x="2360" 
d="M200 2241l226.999 1.00195v-1211c0 -280.667 77.333 -498.334 232 -653.001c140.667 -140.667 313.334 -211 518.001 -211c208 0 380 68 516 204c160 160 240 380 240 660v1210h227v-1210c0 -330.667 -102.667 -598.667 -308 -804
c-120.667 -120.667 -263 -202.334 -427 -245.001c-79.333 -20.667 -162 -31 -248 -31c-266 0 -491.333 92 -676 276c-201.333 201.333 -302 469.333 -302 804z" />
    <glyph glyph-name="V" unicode="V" horiz-adv-x="1944" 
d="M1971 2246l-1053 -2397l-955 2403l231 75l735 -1927l837 1933z" />
    <glyph glyph-name="W" unicode="W" horiz-adv-x="3191" 
d="M3154 2241l-1064 -2398l-513 1307l-514 -1307l-1063 2399l211 85l842 -1933l410 1042l-334 810l216 80l232 -609l237 610l211 -81l-329 -810l405 -1042l842 1932z" />
    <glyph glyph-name="X" unicode="X" horiz-adv-x="1998" 
d="M1825 2220l-702 -1032l789 -1182l-192 -119l-726 1117l-737 -1117l-193 118l800 1183l-686 1031l192 119l621 -964l643 964z" />
    <glyph glyph-name="Y" unicode="Y" horiz-adv-x="1841" 
d="M1620 2338l205 -97l-1172 -2338l-216 97l373 713l-783 1529l216 85l686 -1387z" />
    <glyph glyph-name="Z" unicode="Z" horiz-adv-x="2187" 
d="M1593 2024h-1393v217h1847l-1539 -2025h1576l1 -216h-2031z" />
    <glyph glyph-name="bracketleft" unicode="[" horiz-adv-x="734" 
d="M626 2182h-313v-1998h313v-184h-507v2360h507v-178z" />
    <glyph glyph-name="backslash" unicode="\" horiz-adv-x="1264" 
d="M-11 1879l162 92l1113 -1966l-146 -75z" />
    <glyph glyph-name="bracketright" unicode="]" horiz-adv-x="734" 
d="M119 2182v178h507v-2360h-507v184l313 1v1996z" />
    <glyph glyph-name="asciicircum" unicode="^" horiz-adv-x="1183" 
d="M1080 1858l-135 -125l-356 398l-357 -399l-129 126l486 507l64 -65z" />
    <glyph glyph-name="underscore" unicode="_" horiz-adv-x="1409" 
d="M0 -373v174l1415 -1v-173h-1415z" />
    <glyph glyph-name="grave" unicode="`" horiz-adv-x="1220" 
d="M162 2980l956 -469l-60 -103l-972 411z" />
    <glyph glyph-name="a" unicode="a" horiz-adv-x="1523" 
d="M724 -49c-237.333 0 -419.333 63 -546 189c-75.333 74.667 -113 157.667 -113 249c0 92 37.333 175.333 112 250c128.667 128.667 311 193 547 193c192 0 350.333 -45 475 -135v340h-610v183h788v-1317h-178v183c-124.667 -90 -283 -135 -475 -135zM313 518
c-38.667 -44.667 -58.001 -87.665 -58.001 -128.998c0 -43.333 19.333 -87.333 58 -132c96.667 -91.333 237 -137.333 421 -138c190 -0.666992 331.333 44.666 424 135.999c41.333 40.667 62 85.334 62 134.001c0 47.333 -17.667 88.666 -53 123.999
c-7.33301 7.33301 -13 12.666 -17 15.999c-90 90 -228.667 135.333 -416 136c-177.333 0.666992 -317.666 -48.333 -420.999 -147z" />
    <glyph glyph-name="b" unicode="b" horiz-adv-x="1496" 
d="M297 151l0.000976562 -249l-177 1v2451l177 1v-1297c137.333 137.333 297.666 206 480.999 206c179.333 0 334 -65 464 -195c126.667 -126.667 189.667 -281.334 189 -464.001c-0.666992 -185.333 -63.334 -340.666 -188.001 -465.999s-279.667 -188 -465 -188
c-187.333 0 -344 63 -470 189c-1.33301 1.33301 -4.66602 3.66602 -9.99902 6.99902c0 0.666992 -0.333008 1.33398 -1 2.00098v2zM437.001 950c-3.33301 -4 -8.33496 -8.33203 -15.002 -12.999c-90.667 -90.667 -136 -201.334 -136 -332.001s50.333 -246 151 -346
c86.667 -86 200.334 -129 341.001 -129c130 0 239.833 46.5 329.5 139.5s134.5 204.833 134.5 335.5c0 137.333 -43.333 249 -130 335c-97.333 96.667 -208.666 145 -333.999 145c-138 0 -251.667 -45 -341 -135z" />
    <glyph glyph-name="c" unicode="c" horiz-adv-x="1285" 
d="M1096 264l129.002 -129c-131.333 -126 -287.666 -189 -468.999 -189c-183.333 0 -338 63 -464 189s-189 280.667 -189 464c0 181.333 63.667 335.666 191 462.999s281.666 191 462.999 191c176.667 0 329.334 -61.333 458.001 -184l-124 -129
c-90.667 90.667 -202.334 136 -335.001 136c-131.333 0 -241 -43.667 -329 -131c-2.66699 -3.33301 -7.33398 -7.66602 -14.001 -12.999c-80.667 -80.667 -121 -191.667 -121 -333c0 -136.667 43.333 -250 130 -340s198 -135 334 -135c133.333 0 246.666 46.667 339.999 140
z" />
    <glyph glyph-name="d" unicode="d" horiz-adv-x="1512" 
d="M734 -49c-184.667 0 -339.333 63 -464 189c-129.333 130.667 -194 285.667 -194 465c0 182.667 64.167 338.167 192.5 466.5s283.5 192.5 465.5 192.5c99.333 0 186 -17.667 260 -53c54 -26 126 -76.667 216 -152v1295l183 1v-2453l-183 1v248l-11 -11
c-126 -126 -281 -189 -465 -189zM400.001 950c-3.33301 -3.33301 -8 -7.33301 -14 -12c-77.333 -77.333 -116 -188.333 -116 -333c0 -142.667 41.667 -257 125 -343c84 -88 197 -132 339 -132c132 0 246 46.667 342 140s144 205 144 335c0 62.667 -13.333 125.667 -40 189
c-28 67.333 -65 119.333 -111 156c-90 90 -201.667 135 -335 135c-132.667 0 -244 -45 -334 -135z" />
    <glyph glyph-name="e" unicode="e" horiz-adv-x="1415" 
d="M1351 0h-1227v1220h794v-178h-599v-340h814v-178h-814v-339h1031z" />
    <glyph glyph-name="f" unicode="f" horiz-adv-x="842" 
d="M513 2176v-956h254v-178h-254v-1042h-200v1042h-248v178h248v1134h519v-178h-319z" />
    <glyph glyph-name="g" unicode="g" horiz-adv-x="1496" 
d="M837 -162c263.333 -17.333 474.002 -61.333 632.002 -132c194 -86.667 291 -196 291 -328c0 -138.667 -105 -253.334 -315 -344.001c-190.667 -82.667 -422 -124 -694 -124c-273.333 0 -504.333 40.667 -693 122c-211.333 91.333 -317 207 -317 347
c0 130.667 97.667 239.334 293 326.001c175.333 78 383.666 122 624.999 132v121c-150.667 16.667 -276.667 75.667 -378 177c-126 126 -189 281 -189 465c0 182 64.667 337.333 194 466s284.333 193 465 193c147.333 0 278.666 -43.333 393.999 -130l70 70l130 -130
l-72 -70c87.333 -112 131 -245.333 131 -400c0 -185.333 -62.667 -340 -188 -464c-102.667 -102 -229 -161.333 -379 -178v-119zM416.002 248c56.667 -56.667 137.667 -94.666 243 -113.999v82h178v-81c97.333 21.333 179.333 65.333 246 132
c88.667 88.667 133 199.334 133 332.001c0 114 -23.667 204 -71 270l-60 -59l-129 130l59 59c-76.667 51.333 -164.667 76.666 -264 75.999c-142.667 -0.666992 -256.667 -44.334 -342 -131.001s-128 -201.667 -128 -345c0 -144 45 -261 135 -351zM751.002 -906.999
c245.333 0 452.668 36.332 622.001 108.999c75.333 32.667 130 66.334 164 101.001c26.667 27.333 40 52.666 40 75.999c0 24 -13.667 50 -41 78c-65.333 66.667 -175.333 119.334 -330 158.001c-122 30 -245 46.667 -369 50v-156h-178v159c-122.667 -2 -243 -18 -361 -48
c-148.667 -37.333 -256.334 -89.333 -323.001 -156c-30 -30 -45 -58.667 -45 -86c0 -24 13.667 -49.667 41 -77c72.667 -72.667 196 -127.667 370 -165c134 -28.667 270.667 -43 410 -43z" />
    <glyph glyph-name="h" unicode="h" horiz-adv-x="1550" 
d="M788 1091c-138.667 0 -250.666 -45.333 -335.999 -136s-128 -205.667 -128 -345v-610h-194v2360h183v-1296c136.667 136.667 295 205 475 205c180.667 0 335.667 -64.667 465 -194s194 -284.333 194 -465v-610h-194v610c0 143.333 -41.333 259 -124 347
c-84.667 89.333 -198.334 134 -341.001 134z" />
    <glyph glyph-name="i" unicode="i" horiz-adv-x="610" 
d="M408 1220l-1 -1220h-203l-1 1220h205zM408 1771v-184h-205v184h205z" />
    <glyph glyph-name="j" unicode="j" horiz-adv-x="610" 
d="M416 -1048h-523l-1 179h319v2089h205v-2268zM416 1766v-184h-205v184h205z" />
    <glyph glyph-name="k" unicode="k" horiz-adv-x="1215" 
d="M351 464v-464h-194v2360h194v-1636l508 540l135 -130l-470 -486l802 -594l-123 -146l-803 610z" />
    <glyph glyph-name="l" unicode="l" horiz-adv-x="729" 
d="M124 0v2360h195v-2175l329 -1v-184h-524z" />
    <glyph glyph-name="m" unicode="m" horiz-adv-x="2187" 
d="M92 1269l1010 -1102l993 1106l-1 -1273h-193v805l-794 -902l-65 75l-756 832v-810h-194v1269z" />
    <glyph glyph-name="n" unicode="n" horiz-adv-x="1690" 
d="M1598 1226v-1318l-156 114l-1156 885v-907h-194v1269l1317 -999v956h189z" />
    <glyph glyph-name="o" unicode="o" horiz-adv-x="1496" 
d="M778 -54c-180 0 -336.666 63.001 -469.999 189.001c-59.333 56 -106 127.333 -140 214c-32 81.333 -48 164.666 -48 249.999c0 182.667 64.167 338.167 192.5 466.5s283.833 192.5 466.5 192.5c182 0 336.167 -62.833 462.5 -188.5s189.166 -282.5 188.499 -470.5
c0 -187.333 -62.667 -342 -188 -464c-129.333 -126 -284 -189 -464 -189zM443.001 940.001c-90 -90.667 -135 -204.334 -135 -341.001c0 -132.667 45 -244 135 -334c100.667 -101.333 212.334 -152 335.001 -152s229 45 319 135c96.667 96.667 145 213.667 145 351
c0 140.667 -43.333 254.334 -130 341.001c-96.667 96.667 -208 145 -334 145c-126.667 0 -235.334 -45.333 -326.001 -136z" />
    <glyph glyph-name="p" unicode="p" horiz-adv-x="1512" 
d="M313 157v-1199h-183l-1 2300h184v-194c136.667 136.667 295 205 475 205c180.667 0 335.667 -64.667 465 -194s194 -284.333 194 -465c0 -132 -37.167 -253.333 -111.5 -364s-172.5 -190.667 -294.5 -240c-80 -32.667 -164.333 -49 -253 -49c-183.333 0 -338 63 -464 189
l-9 6c-1.33301 1.33301 -2 3 -2 5zM448 956c-3.33301 -3.33301 -8.66797 -8.33398 -16.001 -15.001c-86 -86 -129.333 -196.333 -130 -331c-0.666992 -59.333 12 -121 38 -185c27.333 -67.333 63.333 -122.666 108 -165.999c86 -83.333 199.333 -124.666 340 -123.999
c131.333 0.666992 243.5 47.5 336.5 140.5s139.5 204.5 139.5 334.5c0 131.333 -41.333 237.666 -124 318.999c-8 8 -13.667 13.333 -17 16c-98 98 -209.667 146.667 -335 146c-137.333 -0.666992 -250.666 -45.667 -339.999 -135z" />
    <glyph glyph-name="q" unicode="q" horiz-adv-x="1534" 
d="M761 -54c-184 0 -338.667 62.666 -464 187.999c-129.333 129.333 -194 284.333 -194 465c0 182.667 64.167 338.167 192.5 466.5s283.833 192.5 466.5 192.5c88 0 172 -17 252 -51c66.667 -28 137.334 -76 212.001 -144c2 -1.33301 5.66699 -4.66602 11 -9.99902v340h183
v-2435h-183v1188c-4.66699 -4 -8.66699 -7.66699 -12 -11c-124.667 -126 -279.334 -189 -464.001 -189zM421 936.999c-80.667 -80.667 -120.669 -193.332 -120.002 -337.999c0.666992 -154 40.667 -269 120 -345c90 -86.667 203.333 -130 340 -130
c138.667 0 250.334 40.667 335.001 122c102 98 153 215.667 153 353c0 129.333 -45 239 -135 329c-8 8 -14 13.667 -18 17c-87.333 87.333 -199 130.666 -335 129.999c-135.333 -0.666992 -248.666 -46.667 -339.999 -138z" />
    <glyph glyph-name="r" unicode="r" horiz-adv-x="859" 
d="M107 0l1.00195 1269h194v-273c8 10 21.333 24.333 40 43c121.333 122.667 266.666 184 435.999 184h21v-174l-20 1c-138.667 6.66699 -254.334 -36.333 -347.001 -129l-11 -11c-79.333 -79.333 -119 -174.666 -119 -285.999l1 -624h-196z" />
    <glyph glyph-name="s" unicode="s" horiz-adv-x="913" 
d="M243 248l43.0039 -48.001c8 -9.33301 14 -16 18 -20c29.333 -29.333 64.666 -46 105.999 -50c7.33301 0 14.666 -0.333008 21.999 -1c41.333 0.666992 81 16.667 119 48c8 6.66699 14.333 12.334 19 17.001c34 34 51 72 51 114v22c0 44 -12.667 81.667 -38 113
c-28.667 28 -71.667 49.667 -129 65c-105.333 28 -182 66 -230 114c-3.33301 3.33301 -11.333 12 -24 26c-52.667 58.667 -79.667 136 -81 232c0 4.66699 0.333008 15.667 1 33c4 90 38.333 167 103 231c10 10 20.333 19.333 31 28c69.333 57.333 146.666 86 231.999 86
c14.667 0 27.667 -1.66699 39 -5c83.333 -4.66699 158 -39.667 224 -105c5.33301 -5.33301 13 -13.666 23 -24.999l-140 -113c-40.667 39.333 -84 59 -130 59c-3.33301 4 -8.66602 6 -15.999 6c-42.667 0 -82.334 -14.333 -119.001 -43c-42.667 -42.667 -66 -86 -70 -130
v-22c0 -50 14.333 -89.333 43 -118c3.33301 -4.66699 8.66602 -11 15.999 -19c22.667 -22.667 60.667 -40 114 -52c102 -22 179 -59 231 -111c5.33301 -5.33301 11 -11.333 17 -18c58 -76 87 -153.667 87 -233v-37c-11.333 -104.667 -58.333 -191.334 -141 -260.001
c-64.667 -54 -143.667 -81 -237 -81h-33c-90 10 -163.667 43.333 -221 100c-9.33301 9.33301 -18.333 19.333 -27 30v0l-39 49z" />
    <glyph glyph-name="t" unicode="t" horiz-adv-x="956" 
d="M362 1048h-320v178h320v1134h194v-1134l330 -1v-176l-330 -1v-864l330 1l-1 -185h-523v1048z" />
    <glyph glyph-name="u" unicode="u" horiz-adv-x="1550" 
d="M775 -49c-184 0 -339 61.333 -465 184c-59.333 58 -107 130.333 -143 217c-34 82.667 -51 167 -51 253v615h195v-615c0 -142 43.333 -255.333 130 -340c92 -90 203.333 -135 334 -135c131.333 0 241.5 46.167 330.5 138.5s133.5 204.5 133.5 336.5v615h195v-615
c0 -187.333 -64.667 -344 -194 -470c-126 -122.667 -281 -184 -465 -184z" />
    <glyph glyph-name="v" unicode="v" horiz-adv-x="1264" 
d="M670 -103l-81 152l-589 1123l181 87l489 -967l499 966l170 -86z" />
    <glyph glyph-name="w" unicode="w" horiz-adv-x="2003" 
d="M1042 626l-378 -729l-664 1275l173 86l502 -972l265 513l-206 373l179 86l129 -259l130 259l167 -86l-193 -373l250 -515l521 974l167 -86l-675 -1275z" />
    <glyph glyph-name="x" unicode="x" horiz-adv-x="1280" 
d="M146 -92l-151 114l496 599l-421 524l151 113l389 -502l400 502l151 -112l-437 -525l496 -599l-159 -114l-451 583z" />
    <glyph glyph-name="y" unicode="y" horiz-adv-x="1269" 
d="M945 -1042v972l-983 1216l141 112l842 -1037v1037h194v-2300h-194z" />
    <glyph glyph-name="z" unicode="z" horiz-adv-x="1555" 
d="M464 184l951 1l1 -185h-1389l151 151l848 886h-832v183h1269z" />
    <glyph glyph-name="braceleft" unicode="{" horiz-adv-x="902" 
d="M255 1188c-0.666992 -3.33301 -1 -10.666 -1 -21.999l675 -1074l-146 -92l-240 380l-435 700c-18 28 -27 60.333 -27 97c0 39.333 8.66699 73.666 26 102.999l563 961l151 -86c-27.333 -56.667 -136 -244.667 -326 -564z" />
    <glyph glyph-name="bar" unicode="|" horiz-adv-x="783" 
d="M518 2354v-3348h-237v3348h237z" />
    <glyph glyph-name="braceright" unicode="}" horiz-adv-x="902" 
d="M653 1188l-293.001 495l-198 335c-37.333 64 -62.666 109.667 -75.999 137l152 86l561 -961c17.333 -30 26.333 -64.333 27 -103c0.666992 -36 -8.33301 -68.333 -27 -97c-5.33301 -8 -59.333 -95 -162 -261l-267 -430l-246 -389l-147 92z" />
    <glyph glyph-name="asciitilde" unicode="~" horiz-adv-x="1879" 
d="M1771 2938l114 -141l-631 -518l-61 38l-545 367l-528 -432l-115 140l638 519l54 -38l545 -373z" />
    <glyph glyph-name="exclamdown" unicode="&#xa1;" horiz-adv-x="583" 
d="M416 1706v-1701h-173v1701h173zM416 2246v-172h-173v172h173z" />
    <glyph glyph-name="cent" unicode="&#xa2;" horiz-adv-x="1377" 
d="M1242 329c-108 -108 -237.667 -170.999 -389 -188.999v-140h-183v146c-138 21.333 -257 82.333 -357 183c-136.667 138 -205 293 -205 465c0 175.333 65 328 195 458c104.667 104.667 227 168 367 190v146h183v-141c150.667 -17.333 278.667 -78.333 384 -183l-125 -130
c-74.667 69.333 -161 112.666 -259 129.999v-940c98.667 16 185 61 259 135zM443 459.001c64.667 -64.667 140.333 -108 227 -130v929c-86 -20.667 -161.667 -63.667 -227 -129c-94 -93.333 -141 -205 -141 -335c0 -129.333 47 -241 141 -335z" />
    <glyph glyph-name="sterling" unicode="&#xa3;" horiz-adv-x="1793" 
d="M1091 211l0.00292969 22.0039c0 112 -38 206 -114 282c-8.66699 8.66699 -15.667 15.334 -21 20.001l-292 318h-345l1 178h182l-146 162c-4 6 -9 11 -15 15c-126.667 129.333 -190 284.666 -190 465.999c12 134.667 67.667 251.667 167 351
c37.333 37.333 80.666 71.666 129.999 102.999c143.333 90.667 308 136.667 494 138c132 0.666992 257 -23 375 -71c91.333 -36.667 170.666 -86 237.999 -148l-146 -162c-102 98 -237.333 152 -406 162l-24 2h-29c-147.333 0 -276.666 -35 -387.999 -105
c-32 -20 -62.333 -44.333 -91 -73c-68 -68 -102.667 -139 -104 -213c-2 -110.667 36.333 -205.334 115 -284.001c10.667 -10.667 17.334 -17 20.001 -19l297 -324h362v-178h-200l141 -156c2.66699 -2.66699 6.66699 -7 12 -13l7 -7c124 -122.667 186 -271 186 -445
c0 -28.667 -2 -48.334 -6 -59.001l17 -10l351 -201l-87 -183l-208 118l-132 76l-17 5c-28.667 17.333 -66.334 25.666 -113.001 24.999c-48.667 -0.666992 -86.334 -9 -113.001 -25l-80 -48l-195 -108c-58.667 -32.667 -127.334 -49 -206.001 -49
c-78 0 -146.333 16.333 -205 49l-193 108l91 189l194 -114c27.333 -16 65 -24 113 -24c47.333 0 85 8 113 24l276 157c42 24 103.333 40.333 184 49z" />
    <glyph glyph-name="currency" unicode="&#xa4;" horiz-adv-x="1512" 
d="M1426 1188c0 -169.333 -59.666 -320.668 -178.999 -454.001l65 -75l-140 -119l-70 86c-107.333 -64.667 -219 -97 -335 -97c-114.667 0 -226.334 32.333 -335.001 97l-65 -86l-140 118l64 76c-122 128.667 -183.333 280 -184 454c-0.666992 173.333 61 325 185 455
l-65 80l140 113l64 -81c102 61.333 214 92 336 92c121.333 0 233 -30.667 335 -92l70 81l140 -113l-65 -81c119.333 -131.333 179 -282.666 179 -453.999zM1242 1188c0 122.667 -37.667 226.997 -113 312.997c-14 16 -21.333 25 -22 27c-32.667 28.667 -72 57.667 -118 87
c-70 32 -144 48 -222 48c-84 0 -155.667 -16 -215 -48c-62.667 -33.333 -106 -66 -130 -98c-5.33301 -8 -11 -13.333 -17 -16c-75.333 -91.333 -113 -195.333 -113 -312c0 -112.667 37.667 -215.667 113 -309l17 -19l6 -4c2 -1.33301 3.33301 -2.66602 4 -3.99902
c6 -7.33301 11.333 -12.666 16 -15.999c20 -20 54.333 -43.333 103 -70c65.333 -36 137.333 -54 216 -54c79.333 0 153 18 221 54c52 27.333 96 60.333 132 99c4 4.66699 7 9.33398 9 14.001c75.333 87.333 113 190 113 308z" />
    <glyph glyph-name="yen" unicode="&#xa5;" horiz-adv-x="1863" 
d="M1430 1453l-777 -1550l-216 97l378 713l-383 740l-497 -1v173h411l-71 135h-339l-1 173h249l-157 309l205 84l697 -1386l702 1398l194 -97l-156 -308h259v-173h-346l-65 -135h411v-172h-498z" />
    <glyph glyph-name="section" unicode="&#xa7;" horiz-adv-x="1793" 
d="M1075 929c1.33301 0 -31.999 2.33496 -99.999 7.00195c-9.33301 0.666992 -17.666 1 -24.999 1c-146 0 -275.333 -35 -388 -105c-30 -18.667 -58.333 -41.334 -85 -68.001c-65.333 -65.333 -102 -138.333 -110 -219c0 -111.333 37.333 -205 112 -281
c2 -2 9.66699 -9 23 -21c56 -50 133.333 -89.667 232 -119c6.66699 0 16.667 -0.666992 30 -2s23.166 -2 29.499 -2s15.666 -0.666992 27.999 -2s21.5 -2 27.5 -2c144.667 0 274 37 388 111c34 22 62.667 44.667 86 68c64 64 100 136.667 108 218
c-0.666992 113.333 -38.667 207.666 -114 282.999c-6 6 -13 12.333 -21 19c-58 48 -131.667 86 -221 114zM556.001 1075c-44.667 13.333 -83.5 32.332 -116.5 56.999l-98.5 76c-126.667 129.333 -190 284.666 -190 465.999c12 134.667 67.667 251.667 167 351
c37.333 37.333 80.666 71.666 129.999 103c143.333 90.667 308 136.667 494 138c132 0.666992 257 -23 375 -71c91.333 -36.667 170.666 -86 237.999 -148l-146 -162c-102 98 -237.333 152 -406 162l-24 2h-29c-147.333 0 -276.666 -35 -387.999 -105
c-32 -20 -62.333 -44.333 -91 -73c-68 -68 -102.667 -139 -104 -213c-2 -110.667 36.333 -205.334 115 -284.001c10.667 -10.667 17.334 -17 20.001 -19c74 -67.333 214.333 -123 421 -167c48.667 -10 126.334 -29.667 233.001 -59
c123.333 -40.667 218.666 -93 285.999 -157c28.667 -27.333 53.667 -54.333 75 -81c92.667 -116 136 -249.333 130 -400c-5.33301 -124.667 -60.666 -240 -165.999 -346c-39.333 -40 -82.5 -73.833 -129.5 -101.5s-85.167 -47.5 -114.5 -59.5
c79.333 -34.667 147.666 -76 204.999 -124c3.33301 -2 7.33301 -5.33301 12 -10l13 -13c120 -120 180 -273 180 -459c-12.667 -132 -67.667 -246.667 -165 -344c-34.667 -34.667 -78.667 -68.667 -132 -102c-148.667 -92.667 -313.334 -139 -494.001 -139
c-20.667 0 -46.667 1.33301 -78 4c-220 18.667 -398.333 90.334 -535 215.001v0l-113 97l139 162l114 -97v-6c103.333 -92 240.333 -145.667 411 -161c22 -2 40 -3 54 -3c146.667 0 276.334 36.667 389.001 110c34.667 22.667 63.334 45.334 86.001 68.001
c64 64 99.667 137 107 219c0 112.667 -37.333 206.334 -112 281.001c-4.66699 4.66699 -12.334 11.667 -23.001 21c-66.667 58.667 -206.667 112.667 -420 162l-98 23c-62 13.333 -112.333 27.333 -151 42l-43 16c-36.667 14 -77 33.333 -121 58s-79.333 50.334 -106 77.001
l-8 8c-3.33301 3.33301 -8 7.66602 -14 12.999c-60 58 -106.667 123 -140 195c-30 64.667 -45.333 134 -46 208l3 57c12 134 67.667 250.667 167 350c36 36 79.333 70.333 130 103c41.333 26.667 77.333 46.667 108 60z" />
    <glyph glyph-name="dieresis" unicode="&#xa8;" horiz-adv-x="1053" 
d="M243 2360v173h173v-173h-173zM713 2360v173l173 1v-174h-173z" />
    <glyph glyph-name="copyright" unicode="&#xa9;" horiz-adv-x="2246" 
d="M1130 1820c213.333 0 406.331 -43.668 578.998 -131.001c158.667 -80 264.334 -180 317.001 -300c25.333 -57.333 38 -115.333 38 -174c0 -122 -48.667 -231.667 -146 -329c-116.667 -116.667 -277 -197.667 -481 -243c-97.333 -22 -199.666 -33 -306.999 -33
c-219.333 0 -414 42.667 -584 128c-84.667 42.667 -155 92 -211 148c-96 96 -144 205.667 -144 329c0 118.667 48 226.334 144 323.001c34.667 34.667 81.334 71 140.001 109c179.333 115.333 397.666 173 654.999 173zM1130 739.999c128 0 251.334 18.3359 370.001 55.0029
c136.667 42 244.667 102.667 324 182c73.333 73.333 110 152.666 110 237.999c0 83.333 -36 162.666 -108 237.999c-42.667 44.667 -103 86.334 -181 125.001c-152.667 74.667 -324.334 112 -515.001 112c-194 0 -367.333 -37 -520 -111
c-75.333 -37.333 -136 -79.666 -182 -126.999c-72 -74.667 -108 -153.334 -108 -236.001c0 -98.667 45.667 -187.334 137 -266.001c72 -62.667 163 -112.334 273 -149.001c124 -40.667 257.333 -61 400 -61zM1135 994.002c57.333 0 106.334 19.667 147.001 59l96 -92
c-64.667 -64.667 -145.667 -97 -243 -97c-96.667 0 -177.5 33.5 -242.5 100.5s-97.5 148.833 -97.5 245.5c0 96 32.667 176.667 98 242s146 98 242 98c92.667 0 172 -32.333 238 -97l-92 -93c-38.667 40 -87.334 60 -146.001 60c-58 0 -107.667 -20.5 -149 -61.5
s-62 -90.5 -62 -148.5c0 -60 20.167 -111 60.5 -153s90.5 -63 150.5 -63z" />
    <glyph glyph-name="guillemotleft" unicode="&#xab;" horiz-adv-x="1377" 
d="M589 1068l129 -128l-405 -357l405 -356l-129 -130l-508 486l65 65zM1161 1069l130 -129l-405 -357l404 -356l-129 -129l-508 485l65 65z" />
    <glyph glyph-name="logicalnot" unicode="&#xac;" horiz-adv-x="2597" 
d="M2469 340l-185 -1v331h-2176v183h2360v-92z" />
    <glyph glyph-name="registered" unicode="&#xae;" horiz-adv-x="2257" 
d="M1129 1814c214.667 0 407.666 -42.667 578.999 -128c158.667 -80 264.667 -180.333 318 -301c24.667 -56 37 -114.333 37 -175c0 -122.667 -48.667 -232.667 -146 -330c-115.333 -115.333 -275.666 -196 -480.999 -242c-97.333 -22 -199.666 -33 -306.999 -33
c-220 0 -415.333 42.667 -586 128c-82.667 42 -152 91 -208 147c-97.333 97.333 -146 207.333 -146 330c0 120.667 49.667 230.667 149 330c39.333 39.333 84.666 75 135.999 107c178.667 111.333 397 167 655 167zM1129 734c128 0 251.333 18.666 370 55.999
c136 42.667 243.667 104 323 184c74 74.667 111 153.334 111 236.001c0 147.333 -96.667 268.333 -290 363c-152 74.667 -323.333 112 -514 112c-306.667 0 -540.667 -79.333 -702 -238c-72 -70.667 -108 -149.667 -108 -237c0 -84.667 36 -164 108 -238
c44.667 -45.333 106.334 -87.333 185.001 -126c151.333 -74.667 323.666 -112 516.999 -112zM1264 1156c-15.333 -15.333 -26.333 -24.333 -33 -27l232 -233l-91 -91l-287 286h-70v-243h-129v686h221c62 0 114.333 -21.5 157 -64.5s64 -95.5 64 -157.5
s-21.333 -114 -64 -156zM1015 1404v-184h92c24.667 0 46.167 9.16699 64.5 27.5s27.5 39.833 27.5 64.5c0 25.333 -9 47 -27 65s-39.667 27 -65 27h-92z" />
    <glyph glyph-name="degree" unicode="&#xb0;" horiz-adv-x="551" 
d="M49 1442c0 66 22.167 121.167 66.5 165.5s99.5 66.5 165.5 66.5c65.333 0 120.333 -22.333 165 -67s67 -99.667 67 -165c0 -61.333 -23.333 -115.333 -70 -162c-42.667 -42.667 -96.667 -64.334 -162 -65.001c-67.333 -0.666992 -122.833 20.333 -166.5 63
s-65.5 97.334 -65.5 164.001zM405 1442c0 34.667 -12 63.501 -36 86.501s-53.333 34.5 -88 34.5c-35.333 0 -66 -10.667 -92 -32c-21.333 -26.667 -32 -56.334 -32 -89.001c0 -29.333 10.667 -57.333 32 -84c21.333 -21.333 52 -32 92 -32c33.333 0 62.333 11 87 33
s37 49.667 37 83z" />
    <glyph glyph-name="threesuperior" unicode="&#xb3;" horiz-adv-x="333" 
 />
    <glyph glyph-name="acute" unicode="&#xb4;" horiz-adv-x="1220" 
d="M1042 2981l76 -162l-972 -411l-60 103z" />
    <glyph glyph-name="paragraph" unicode="&#xb6;" horiz-adv-x="1928" 
d="M1550 0v1885h146v-1885h-146zM1247 1885h146v-1885h-146v945c-88.667 -25.333 -187.667 -38 -297 -38c-270.667 0 -479 72.333 -625 217c-72.667 72 -109 151 -109 237c0 92 41.333 175.333 124 250c66 60 149.333 108 250 144c110.667 39.333 230.667 59 360 59
c91.333 0 190.333 -12.333 297 -37v108z" />
    <glyph glyph-name="periodcentered" unicode="&#xb7;" horiz-adv-x="794" 
d="M162 622c0 68 21.667 123.499 65 166.499s99 64.5 167 64.5c65.333 0 120.333 -22.333 165 -67s67 -99.667 67 -165c0 -62.667 -23 -116.167 -69 -160.5s-100.333 -66.5 -163 -66.5c-67.333 0 -122.833 21.333 -166.5 64s-65.5 97.334 -65.5 164.001z" />
    <glyph glyph-name="periodcentered" unicode="&#x2219;" horiz-adv-x="794" 
d="M162 622c0 68 21.667 123.499 65 166.499s99 64.5 167 64.5c65.333 0 120.333 -22.333 165 -67s67 -99.667 67 -165c0 -62.667 -23 -116.167 -69 -160.5s-100.333 -66.5 -163 -66.5c-67.333 0 -122.833 21.333 -166.5 64s-65.5 97.334 -65.5 164.001z" />
    <glyph glyph-name="cedilla" unicode="&#xb8;" horiz-adv-x="945" 
d="M853 -610c0 -162.667 -102.668 -280.333 -308.001 -353c-86.667 -31.333 -180 -47 -280 -47h-119v178h119c158 0 278 40.333 360 121c33.333 32.667 50 66.334 50 101.001c0 32 -16.333 64.333 -49 97c-79.333 79.333 -199.666 119 -360.999 119h-92v394h183v-216
c81.333 -8 157 -26.667 227 -56c180 -74.667 270 -187.334 270 -338.001z" />
    <glyph glyph-name="guillemotright" unicode="&#xbb;" horiz-adv-x="1377" 
d="M783 1069l508 -486l-65 -65l-443 -421l-130 130l405 356l-405 357zM211 1069l507 -486l-65 -65l-442 -421l-130 130l405 356l-405 357z" />
    <glyph glyph-name="questiondown" unicode="&#xbf;" horiz-adv-x="1118" 
d="M849 0c-223.333 0 -396.332 61.333 -518.999 184c-72.667 72.667 -109 151.667 -109 237c0 86 36.333 165.333 109 238c102 102 245.667 161.333 431 178l1 459h172v-626h-86c-174.667 0 -307.334 -45.333 -398.001 -136c-37.333 -37.333 -56 -75 -56 -113
c0 -92 75.333 -163 226 -213c70 -23.333 146 -35 228 -35h21l-1 -173h-19zM934.001 1836v-174l-173 1v173h173z" />
    <glyph glyph-name="Agrave" unicode="&#xc0;" horiz-adv-x="1987" 
d="M913 2290l1107 -2295l-195 -98l-502 1043h-772l-459 -1038l-195 87zM637 1156h594l-308 629zM470 2980l956 -469l-60 -103l-972 411z" />
    <glyph glyph-name="Aacute" unicode="&#xc1;" horiz-adv-x="1987" 
d="M913 2290l1107 -2295l-195 -98l-502 1043h-772l-459 -1038l-195 87zM637 1156h594l-308 629zM1297 2981l76 -162l-972 -411l-60 103z" />
    <glyph glyph-name="Acircumflex" unicode="&#xc2;" horiz-adv-x="1987" 
d="M913 2290l1107 -2295l-195 -98l-502 1043h-772l-459 -1038l-195 87zM637 1156h594l-308 629zM1405 2511l-136 -100l-357 397l-356 -400l-130 103l486 513l65 -70z" />
    <glyph glyph-name="Atilde" unicode="&#xc3;" horiz-adv-x="1987" 
d="M913 2290l1107 -2295l-195 -98l-502 1043h-772l-459 -1038l-195 87zM637 1156h594l-308 629zM1093 2387l-323 259l-279 -197l-83 116l351 243l313 -248l262 189l89 -119z" />
    <glyph glyph-name="Adieresis" unicode="&#xc4;" horiz-adv-x="1987" 
d="M913 2290l1107 -2295l-195 -98l-502 1043h-772l-459 -1038l-195 87zM637 1156h594l-308 629zM591 2360v173h173v-173h-173zM1061 2360v173l173 1v-174h-173z" />
    <glyph glyph-name="Aring" unicode="&#xc5;" horiz-adv-x="1987" 
d="M913 2290l1107 -2295l-195 -98l-502 1043h-772l-459 -1038l-195 87zM637 1156h594l-308 629zM1248 2603c0 -94.667 -61.667 -165.667 -185 -213c-52.667 -20 -108 -30 -166 -30c-120 0 -217 36 -291 108c-40 38.667 -60 83.667 -60 135c0 55.333 21 104 63 146
c68 68 164 102 288 102c58 0 113 -9.66699 165 -29c124 -46 186 -119 186 -219zM897 2479c82 0 144.332 21.333 186.999 64c19.333 19.333 29 39.333 29 60s-7 40.334 -21 59c-46.667 46.667 -111.667 70 -195 70c-81.333 0 -146 -23.333 -194 -70
c-14.667 -19.333 -22 -39 -22 -59c0 -16.667 7.33301 -34.667 22 -54c46.667 -46.667 111.334 -70 194.001 -70z" />
    <glyph glyph-name="AE" unicode="&#xc6;" horiz-adv-x="3542" 
d="M1949 216h1313l1 -216h-1531l1 108v880h-745l-972 -1058l-162 140l1879 2063v108l114 1l102 112v-113l864 1v-217h-864v-821l1086 -1v-214l-1086 -1v-772zM1188 1203l545 1v594z" />
    <glyph glyph-name="Ccedilla" unicode="&#xc7;" horiz-adv-x="2279" 
d="M1328 124c252 0 475.335 97.3311 670.002 291.998l157 -151c-236.667 -234 -512.334 -351 -827.001 -351c-316.667 0 -588.334 113.333 -815.001 340c-234 234 -351 516.667 -351 848c0 212 52 409.333 156 592s246.667 328.334 428 437.001c178 106 372 159 582 159
c316.667 0 588.667 -113.667 816 -341l-151 -151c-187.333 187.333 -409 281 -665 281c-248 0 -467.333 -95.333 -658 -286c-185.333 -185.333 -278 -415.666 -278 -690.999c0 -277.333 92.667 -508 278 -692c192 -190.667 411.333 -286 658 -286zM1866 -610.002
c0 -162.667 -102.668 -280.333 -308.001 -353c-86.667 -31.333 -180 -47 -280 -47h-119v178h119c158 0 278 40.333 360 121c33.333 32.667 50 66.334 50 101.001c0 32 -16.333 64.333 -49 97c-79.333 79.333 -199.666 119 -360.999 119h-92v394h183v-216
c81.333 -8 157 -26.667 227 -56c180 -74.667 270 -187.334 270 -338.001z" />
    <glyph glyph-name="Egrave" unicode="&#xc8;" horiz-adv-x="1836" 
d="M383 1058v-842h1307v-216h-1533v2242l108 -1h972v-211h-854v-756l1080 -1v-214zM284 2980l956 -469l-60 -103l-972 411z" />
    <glyph glyph-name="Eacute" unicode="&#xc9;" horiz-adv-x="1836" 
d="M383 1058v-842h1307v-216h-1533v2242l108 -1h972v-211h-854v-756l1080 -1v-214zM1107 2981l76 -162l-972 -411l-60 103z" />
    <glyph glyph-name="Ecircumflex" unicode="&#xca;" horiz-adv-x="1836" 
d="M383 1058v-842h1307v-216h-1533v2242l108 -1h972v-211h-854v-756l1080 -1v-214zM1224 2511l-136 -100l-357 397l-356 -400l-130 103l486 513l65 -70z" />
    <glyph glyph-name="Edieresis" unicode="&#xcb;" horiz-adv-x="1836" 
d="M383 1058v-842h1307v-216h-1533v2242l108 -1h972v-211h-854v-756l1080 -1v-214zM365 2360v173h173v-173h-173zM835 2360v173l173 1v-174h-173z" />
    <glyph glyph-name="Igrave" unicode="&#xcc;" horiz-adv-x="1501" 
d="M1457 -524l19.001 -18.9971c120.667 -120.667 201.667 -266.334 243 -437.001c20.667 -83.333 31 -169 31 -257c0 -276.667 -92 -507 -276 -691c-76 -76 -152 -136 -228 -180c-154 -89.333 -319 -134 -495 -134c-282 0 -521.667 99.333 -719 298
c-194 195.333 -291 431 -291 707c0 184.667 46 355.667 138 513c44.667 76 97 144 157 204c172 172 379.667 268 623 288v183c-153.333 24 -279.333 85.333 -378 184c-126.667 126.667 -189.667 281.667 -189 465s65 339 193 467s283.333 192 466 192
c144 0 275.333 -43.333 394 -130l70 70l124 -135l-70 -65c90 -116.667 135 -250 135 -400c0 -184.667 -62.667 -339.334 -188 -464.001c-100.667 -100 -227 -161.333 -379 -184v-183c111.333 -6.66699 220 -34.334 326 -83.001c95.333 -44 188.666 -109 279.999 -195
c2 -1.33301 5 -4 9 -8zM410.001 264.003c69.333 -70 152.332 -113.33 248.999 -129.997v82h178v-81c112.667 21.333 205.334 75.666 278.001 162.999s109.334 187.666 110.001 300.999c0.666992 102 -28 192 -86 270l-54 -59l-135 124l65 65
c-85.333 50.667 -173.333 76 -264 76c-134.667 0 -253.334 -51.333 -356.001 -154c-84 -84 -126 -191.333 -126 -322c0 -128.667 47 -240.334 141 -335.001zM752 -2056.99c166 0 317.332 45.832 453.999 137.499s237.334 213.834 302.001 366.501c42 100.667 63 206 63 316
c0 231.333 -79 426 -237 584c-141.333 141.333 -307 220.333 -497 237v-81l-178 1v80c-189.333 -16 -355 -95 -497 -237c-162 -162 -243 -356.667 -243 -584c0 -228.667 80.833 -422.5 242.5 -581.5s358.5 -238.5 590.5 -238.5z" />
    <glyph glyph-name="Iacute" unicode="&#xcd;" horiz-adv-x="783" 
d="M529 2242v-2242h-259v2242h259zM802 2981l76 -162l-972 -411l-60 103z" />
    <glyph glyph-name="Icircumflex" unicode="&#xce;" horiz-adv-x="783" 
d="M529 2242v-2242h-259v2242h259zM892 2511l-136 -100l-357 397l-356 -400l-130 103l486 513l65 -70z" />
    <glyph glyph-name="Idieresis" unicode="&#xcf;" horiz-adv-x="783" 
d="M529 2242v-2242h-259v2242h259zM62 2360v173h173v-173h-173zM532 2360v173l173 1v-174h-173z" />
    <glyph glyph-name="Ntilde" unicode="&#xd1;" horiz-adv-x="2608" 
d="M373 2203l1836 -1852v1891l226 -1v-2419l-194 189l-1836 1852l-1 -1863h-226l-1 2392zM1467 2387l-323 259l-279 -197l-83 116l351 243l313 -248l262 189l89 -119z" />
    <glyph glyph-name="Ograve" unicode="&#xd2;" horiz-adv-x="2376" 
d="M1172 2284c274 0 511.334 -100.668 712.001 -302.001c154 -154.667 259.333 -341.667 316 -561c28 -108 42 -216.333 42 -325c0 -352 -119 -647 -357 -885c-202 -202 -439.667 -303 -713 -303c-272.667 0 -510.334 101 -713.001 303
c-152.667 152 -257.334 338 -314.001 558c-28 106.667 -42 215.667 -42 327c0 230.667 55.333 442.334 166 635.001c152 266 365.333 438 640 516c86.667 24.667 174.334 37 263.001 37zM1172 112.999c209.333 0 392.332 78.334 548.999 235.001
c195.333 195.333 293 444.666 293 747.999c0 299.333 -93.667 542.333 -281 729c-170 169.333 -357 254 -561 254c-205.333 0 -392.666 -84.667 -561.999 -254c-186.667 -186.667 -280 -429.667 -280 -729c0 -298.667 93.333 -541.667 280 -729
c168.667 -169.333 356 -254 562 -254zM718 2980l956 -469l-60 -103l-972 411z" />
    <glyph glyph-name="Oacute" unicode="&#xd3;" horiz-adv-x="2376" 
d="M1172 2284c274 0 511.334 -100.668 712.001 -302.001c154 -154.667 259.333 -341.667 316 -561c28 -108 42 -216.333 42 -325c0 -352 -119 -647 -357 -885c-202 -202 -439.667 -303 -713 -303c-272.667 0 -510.334 101 -713.001 303
c-152.667 152 -257.334 338 -314.001 558c-28 106.667 -42 215.667 -42 327c0 230.667 55.333 442.334 166 635.001c152 266 365.333 438 640 516c86.667 24.667 174.334 37 263.001 37zM1172 112.999c209.333 0 392.332 78.334 548.999 235.001
c195.333 195.333 293 444.666 293 747.999c0 299.333 -93.667 542.333 -281 729c-170 169.333 -357 254 -561 254c-205.333 0 -392.666 -84.667 -561.999 -254c-186.667 -186.667 -280 -429.667 -280 -729c0 -298.667 93.333 -541.667 280 -729
c168.667 -169.333 356 -254 562 -254zM1506 2981l76 -162l-972 -411l-60 103z" />
    <glyph glyph-name="Ocircumflex" unicode="&#xd4;" horiz-adv-x="2376" 
d="M1637 2511l-136 -100l-357 397l-356 -400l-130 103l486 513l65 -70zM1172 2284c274 0 511.334 -100.668 712.001 -302.001c154 -154.667 259.333 -341.667 316 -561c28 -108 42 -216.333 42 -325c0 -352 -119 -647 -357 -885c-202 -202 -439.667 -303 -713 -303
c-272.667 0 -510.334 101 -713.001 303c-152.667 152 -257.334 338 -314.001 558c-28 106.667 -42 215.667 -42 327c0 230.667 55.333 442.334 166 635.001c152 266 365.333 438 640 516c86.667 24.667 174.334 37 263.001 37zM1172 112.999
c209.333 0 392.332 78.334 548.999 235.001c195.333 195.333 293 444.666 293 747.999c0 299.333 -93.667 542.333 -281 729c-170 169.333 -357 254 -561 254c-205.333 0 -392.666 -84.667 -561.999 -254c-186.667 -186.667 -280 -429.667 -280 -729
c0 -298.667 93.333 -541.667 280 -729c168.667 -169.333 356 -254 562 -254z" />
    <glyph glyph-name="Otilde" unicode="&#xd5;" horiz-adv-x="2376" 
d="M1172 2284c274 0 511.334 -100.668 712.001 -302.001c154 -154.667 259.333 -341.667 316 -561c28 -108 42 -216.333 42 -325c0 -352 -119 -647 -357 -885c-202 -202 -439.667 -303 -713 -303c-272.667 0 -510.334 101 -713.001 303
c-152.667 152 -257.334 338 -314.001 558c-28 106.667 -42 215.667 -42 327c0 230.667 55.333 442.334 166 635.001c152 266 365.333 438 640 516c86.667 24.667 174.334 37 263.001 37zM1172 112.999c209.333 0 392.332 78.334 548.999 235.001
c195.333 195.333 293 444.666 293 747.999c0 299.333 -93.667 542.333 -281 729c-170 169.333 -357 254 -561 254c-205.333 0 -392.666 -84.667 -561.999 -254c-186.667 -186.667 -280 -429.667 -280 -729c0 -298.667 93.333 -541.667 280 -729
c168.667 -169.333 356 -254 562 -254zM1298 2387l-323 259l-279 -197l-83 116l351 243l313 -248l262 189l89 -119z" />
    <glyph glyph-name="Odieresis" unicode="&#xd6;" horiz-adv-x="2376" 
d="M1172 2284c274 0 511.334 -100.668 712.001 -302.001c154 -154.667 259.333 -341.667 316 -561c28 -108 42 -216.333 42 -325c0 -352 -119 -647 -357 -885c-202 -202 -439.667 -303 -713 -303c-272.667 0 -510.334 101 -713.001 303
c-152.667 152 -257.334 338 -314.001 558c-28 106.667 -42 215.667 -42 327c0 230.667 55.333 442.334 166 635.001c152 266 365.333 438 640 516c86.667 24.667 174.334 37 263.001 37zM1172 112.999c209.333 0 392.332 78.334 548.999 235.001
c195.333 195.333 293 444.666 293 747.999c0 299.333 -93.667 542.333 -281 729c-170 169.333 -357 254 -561 254c-205.333 0 -392.666 -84.667 -561.999 -254c-186.667 -186.667 -280 -429.667 -280 -729c0 -298.667 93.333 -541.667 280 -729
c168.667 -169.333 356 -254 562 -254zM831 2360v173h173v-173h-173zM1301 2360v173l173 1v-174h-173z" />
    <glyph glyph-name="Oslash" unicode="&#xd8;" horiz-adv-x="2376" 
d="M1890 1976c154 -154 258.999 -340 314.999 -558c27.333 -106 41 -215 41 -327c0 -350.667 -118.667 -644 -356 -880c-203.333 -202 -441 -303 -713 -303c-179.333 0 -338 39.667 -476 119l-85 -147l-195 104l97 173l-54 54c-237.333 237.333 -356 530.666 -356 879.999
c0 230 55.333 441.667 166 635c126.667 220 299.334 377.667 518.001 473c122 53.333 250.333 80 385 80c161.333 0 320 -43.333 476 -130l91 168l195 -108l-108 -184c25.333 -25.333 45 -41.666 59 -48.999zM616.999 362c1.33301 -2 4.33301 -7.33301 9 -16l918 1620
c-120.667 64.667 -243 97 -367 97c-212 0 -398.667 -81 -560 -243c-194.667 -196 -292 -439 -292 -729c0 -291.333 97.333 -534.333 292 -729zM1177 124c213.333 0 400.999 81.001 562.999 243.001c193.333 193.333 290 434.666 290 723.999c0 292 -97 535 -291 729
c-5.33301 6 -10.666 11.333 -15.999 16l-918 -1615c104.667 -64.667 228.667 -97 372 -97z" />
    <glyph glyph-name="Ugrave" unicode="&#xd9;" horiz-adv-x="2360" 
d="M200 2241l226.999 1.00195v-1211c0 -280.667 77.333 -498.334 232 -653.001c140.667 -140.667 313.334 -211 518.001 -211c208 0 380 68 516 204c160 160 240 380 240 660v1210h227v-1210c0 -330.667 -102.667 -598.667 -308 -804
c-120.667 -120.667 -263 -202.334 -427 -245.001c-79.333 -20.667 -162 -31 -248 -31c-266 0 -491.333 92 -676 276c-201.333 201.333 -302 469.333 -302 804zM744.999 2980l956 -469l-60 -103l-972 411z" />
    <glyph glyph-name="Uacute" unicode="&#xda;" horiz-adv-x="2360" 
d="M200 2241l226.999 1.00195v-1211c0 -280.667 77.333 -498.334 232 -653.001c140.667 -140.667 313.334 -211 518.001 -211c208 0 380 68 516 204c160 160 240 380 240 660v1210h227v-1210c0 -330.667 -102.667 -598.667 -308 -804
c-120.667 -120.667 -263 -202.334 -427 -245.001c-79.333 -20.667 -162 -31 -248 -31c-266 0 -491.333 92 -676 276c-201.333 201.333 -302 469.333 -302 804zM1582 2981l76 -162l-972 -411l-60 103z" />
    <glyph glyph-name="Ucircumflex" unicode="&#xdb;" horiz-adv-x="2360" 
d="M200 2241l226.999 1.00195v-1211c0 -280.667 77.333 -498.334 232 -653.001c140.667 -140.667 313.334 -211 518.001 -211c208 0 380 68 516 204c160 160 240 380 240 660v1210h227v-1210c0 -330.667 -102.667 -598.667 -308 -804
c-120.667 -120.667 -263 -202.334 -427 -245.001c-79.333 -20.667 -162 -31 -248 -31c-266 0 -491.333 92 -676 276c-201.333 201.333 -302 469.333 -302 804zM1678 2511l-136 -100l-357 397l-356 -400l-130 103l486 513l65 -70z" />
    <glyph glyph-name="Udieresis" unicode="&#xdc;" horiz-adv-x="2360" 
d="M200 2241l226.999 1.00195v-1211c0 -280.667 77.333 -498.334 232 -653.001c140.667 -140.667 313.334 -211 518.001 -211c208 0 380 68 516 204c160 160 240 380 240 660v1210h227v-1210c0 -330.667 -102.667 -598.667 -308 -804
c-120.667 -120.667 -263 -202.334 -427 -245.001c-79.333 -20.667 -162 -31 -248 -31c-266 0 -491.333 92 -676 276c-201.333 201.333 -302 469.333 -302 804zM854.999 2360v173h173v-173h-173zM1325 2360v173l173 1v-174h-173z" />
    <glyph glyph-name="germandbls" unicode="&#xdf;" horiz-adv-x="1793" 
d="M243 248l43.0039 -48.001c8 -9.33301 14 -16 18 -20c29.333 -29.333 64.666 -46 105.999 -50c7.33301 0 14.666 -0.333008 21.999 -1c41.333 0.666992 81 16.667 119 48c8 6.66699 14.333 12.334 19 17.001c34 34 51 72 51 114v22c0 44 -12.667 81.667 -38 113
c-28.667 28 -71.667 49.667 -129 65c-105.333 28 -182 66 -230 114c-3.33301 3.33301 -11.333 12 -24 26c-52.667 58.667 -79.667 136 -81 232c0 4.66699 0.333008 15.667 1 33c4 90 38.333 167 103 231c10 10 20.333 19.333 31 28c69.333 57.333 146.666 86 231.999 86
c14.667 0 27.667 -1.66699 39 -5c83.333 -4.66699 158 -39.667 224 -105c5.33301 -5.33301 13 -13.666 23 -24.999l-140 -113c-40.667 39.333 -84 59 -130 59c-3.33301 4 -8.66602 6 -15.999 6c-42.667 0 -82.334 -14.333 -119.001 -43c-42.667 -42.667 -66 -86 -70 -130
v-22c0 -50 14.333 -89.333 43 -118c3.33301 -4.66699 8.66602 -11 15.999 -19c22.667 -22.667 60.667 -40 114 -52c102 -22 179 -59 231 -111c5.33301 -5.33301 11 -11.333 17 -18c58 -76 87 -153.667 87 -233v-37c-11.333 -104.667 -58.333 -191.334 -141 -260.001
c-64.667 -54 -143.667 -81 -237 -81h-33c-90 10 -163.667 43.333 -221 100c-9.33301 9.33301 -18.333 19.333 -27 30v0l-39 49zM1080 247.999l44.001 -48.002l18 -21c28 -28.667 63 -45 105 -49h22c41.333 0 81 15.667 119 47c7.33301 6 13.666 11.667 18.999 17
c34 34 51 72 51 114v22c0 44.667 -12.667 82.334 -38 113.001c-28.667 28.667 -71.667 50.334 -129 65.001c-106.667 27.333 -184 65.666 -232 114.999c-68.667 70.667 -103 156.334 -103 257.001v34c0 84.667 34.333 161 103 229c5.33301 5.33301 16 15 32 29
c70 57.333 147.333 86 232 86c15.333 0 27.666 -1.66699 36.999 -5c85.333 -4.66699 160.666 -39.667 225.999 -105c6 -6 13.667 -14.333 23 -25l-140 -113c-39.333 38.667 -82.666 58.334 -129.999 59.001c-2.66699 3.33301 -8 5.66602 -16 6.99902c-42 0 -82 -15 -120 -45
c-42 -42 -65 -85 -69 -129v-22c0 -50 14.333 -89.667 43 -119c3.33301 -3.33301 8 -8.66602 14 -15.999c25.333 -25.333 64 -43.333 116 -54c92 -18.667 172 -58.334 240 -119.001c3.33301 -2.66699 6 -6 8 -10c58 -76 87 -153.333 87 -232
c0.666992 -3.33301 1 -8.66602 1 -15.999v-22c-12 -104.667 -59.333 -191.334 -142 -260.001c-64.667 -54 -143.667 -81 -237 -81h-33c-91.333 10 -165.666 44 -222.999 102c-12 12.667 -20.333 22 -25 28v0l-38 49z" />
    <glyph glyph-name="agrave" unicode="&#xe0;" 
d="M724 -49c-237.333 0 -419.333 63 -546 189c-75.333 74.667 -113 157.667 -113 249c0 92 37.333 175.333 112 250c128.667 128.667 311 193 547 193c192 0 350.333 -45 475 -135v340h-610v183h788v-1317h-178v183c-124.667 -90 -283 -135 -475 -135zM313 518
c-38.667 -44.667 -58.001 -87.665 -58.001 -128.998c0 -43.333 19.333 -87.333 58 -132c96.667 -91.333 237 -137.333 421 -138c190 -0.666992 331.333 44.666 424 135.999c41.333 40.667 62 85.334 62 134.001c0 47.333 -17.667 88.666 -53 123.999
c-7.33301 7.33301 -13 12.666 -17 15.999c-90 90 -228.667 135.333 -416 136c-177.333 0.666992 -317.666 -48.333 -420.999 -147zM415.999 2054l956 -469l-60 -103l-972 411z" />
    <glyph glyph-name="aacute" unicode="&#xe1;" 
d="M724 -49c-237.333 0 -419.333 63 -546 189c-75.333 74.667 -113 157.667 -113 249c0 92 37.333 175.333 112 250c128.667 128.667 311 193 547 193c192 0 350.333 -45 475 -135v340h-610v183h788v-1317h-178v183c-124.667 -90 -283 -135 -475 -135zM313 518
c-38.667 -44.667 -58.001 -87.665 -58.001 -128.998c0 -43.333 19.333 -87.333 58 -132c96.667 -91.333 237 -137.333 421 -138c190 -0.666992 331.333 44.666 424 135.999c41.333 40.667 62 85.334 62 134.001c0 47.333 -17.667 88.666 -53 123.999
c-7.33301 7.33301 -13 12.666 -17 15.999c-90 90 -228.667 135.333 -416 136c-177.333 0.666992 -317.666 -48.333 -420.999 -147zM1297 2049l76 -162l-972 -411l-60 103z" />
    <glyph glyph-name="acircumflex" unicode="&#xe2;" 
d="M724 -49c-237.333 0 -419.333 63 -546 189c-75.333 74.667 -113 157.667 -113 249c0 92 37.333 175.333 112 250c128.667 128.667 311 193 547 193c192 0 350.333 -45 475 -135v340h-610v183h788v-1317h-178v183c-124.667 -90 -283 -135 -475 -135zM313 518
c-38.667 -44.667 -58.001 -87.665 -58.001 -128.998c0 -43.333 19.333 -87.333 58 -132c96.667 -91.333 237 -137.333 421 -138c190 -0.666992 331.333 44.666 424 135.999c41.333 40.667 62 85.334 62 134.001c0 47.333 -17.667 88.666 -53 123.999
c-7.33301 7.33301 -13 12.666 -17 15.999c-90 90 -228.667 135.333 -416 136c-177.333 0.666992 -317.666 -48.333 -420.999 -147zM1360 1582l-136 -100l-357 397l-356 -400l-130 103l486 513l65 -70z" />
    <glyph glyph-name="atilde" unicode="&#xe3;" 
d="M724 -49c-237.333 0 -419.333 63 -546 189c-75.333 74.667 -113 157.667 -113 249c0 92 37.333 175.333 112 250c128.667 128.667 311 193 547 193c192 0 350.333 -45 475 -135v340h-610v183h788v-1317h-178v183c-124.667 -90 -283 -135 -475 -135zM313 518
c-38.667 -44.667 -58.001 -87.665 -58.001 -128.998c0 -43.333 19.333 -87.333 58 -132c96.667 -91.333 237 -137.333 421 -138c190 -0.666992 331.333 44.666 424 135.999c41.333 40.667 62 85.334 62 134.001c0 47.333 -17.667 88.666 -53 123.999
c-7.33301 7.33301 -13 12.666 -17 15.999c-90 90 -228.667 135.333 -416 136c-177.333 0.666992 -317.666 -48.333 -420.999 -147zM1047 1383l-323 259l-279 -197l-83 116l351 243l313 -248l262 189l89 -119z" />
    <glyph glyph-name="adieresis" unicode="&#xe4;" 
d="M724 -49c-237.333 0 -419.333 63 -546 189c-75.333 74.667 -113 157.667 -113 249c0 92 37.333 175.333 112 250c128.667 128.667 311 193 547 193c192 0 350.333 -45 475 -135v340h-610v183h788v-1317h-178v183c-124.667 -90 -283 -135 -475 -135zM313 518
c-38.667 -44.667 -58.001 -87.665 -58.001 -128.998c0 -43.333 19.333 -87.333 58 -132c96.667 -91.333 237 -137.333 421 -138c190 -0.666992 331.333 44.666 424 135.999c41.333 40.667 62 85.334 62 134.001c0 47.333 -17.667 88.666 -53 123.999
c-7.33301 7.33301 -13 12.666 -17 15.999c-90 90 -228.667 135.333 -416 136c-177.333 0.666992 -317.666 -48.333 -420.999 -147zM655.999 1545v173h173v-173h-173zM1126 1545v173l173 1v-174h-173z" />
    <glyph glyph-name="aring" unicode="&#xe5;" 
d="M724 -49c-237.333 0 -419.333 63 -546 189c-75.333 74.667 -113 157.667 -113 249c0 92 37.333 175.333 112 250c128.667 128.667 311 193 547 193c192 0 350.333 -45 475 -135v340h-610v183h788v-1317h-178v183c-124.667 -90 -283 -135 -475 -135zM313 518
c-38.667 -44.667 -58.001 -87.665 -58.001 -128.998c0 -43.333 19.333 -87.333 58 -132c96.667 -91.333 237 -137.333 421 -138c190 -0.666992 331.333 44.666 424 135.999c41.333 40.667 62 85.334 62 134.001c0 47.333 -17.667 88.666 -53 123.999
c-7.33301 7.33301 -13 12.666 -17 15.999c-90 90 -228.667 135.333 -416 136c-177.333 0.666992 -317.666 -48.333 -420.999 -147zM1347 1728c0 -94.667 -61.667 -165.667 -185 -213c-52.667 -20 -108 -30 -166 -30c-120 0 -217 36 -291 108c-40 38.667 -60 83.667 -60 135
c0 55.333 21 104 63 146c68 68 164 102 288 102c58 0 113 -9.66699 165 -29c124 -46 186 -119 186 -219zM995.999 1604c82 0 144.332 21.332 186.999 63.999c19.333 19.333 29 39.333 29 60s-7 40.334 -21 59.001c-46.667 46.667 -111.667 70 -195 70
c-81.333 0 -146 -23.333 -194 -70c-14.667 -19.333 -22 -39 -22 -59c0 -16.667 7.33301 -34.667 22 -54c46.667 -46.667 111.334 -70 194.001 -70z" />
    <glyph glyph-name="ae" unicode="&#xe6;" horiz-adv-x="2403" 
d="M2322 173v-172.999h-994v-86h-172l-1 86l1 86c-126 -86 -277.333 -129 -454 -129c-222 0 -394.667 61 -518 183c-72 71.333 -108 150.666 -108 237.999c0 167.333 109 291 327 371c90.667 33.333 190 50 298 50c179.333 0 331 -43 455 -129v323h-584v173l1340 -1v-171
h-584v-324h789v-174h-789v-323h994zM701 130.001c179.333 0 312.333 44 399 132c37.333 38 56 76.667 56 116c0 88.667 -74 159 -222 211c-72 24.667 -149.333 37 -232 37c-176 0 -309.333 -45 -400 -135c-36 -36 -54 -73.667 -54 -113c0 -92 76 -163 228 -213
c71.333 -23.333 146.333 -35 225 -35z" />
    <glyph glyph-name="ccedilla" unicode="&#xe7;" horiz-adv-x="1312" 
d="M1096 264l129.002 -129c-131.333 -126 -287.666 -189 -468.999 -189c-183.333 0 -338 63 -464 189s-189 280.667 -189 464c0 181.333 63.667 335.666 191 462.999s281.666 191 462.999 191c176.667 0 329.334 -61.333 458.001 -184l-124 -129
c-90.667 90.667 -202.334 136 -335.001 136c-131.333 0 -241 -43.667 -329 -131c-2.66699 -3.33301 -7.33398 -7.66602 -14.001 -12.999c-80.667 -80.667 -121 -191.667 -121 -333c0 -136.667 43.333 -250 130 -340s198 -135 334 -135c133.333 0 246.666 46.667 339.999 140
zM1349 -610c0 -162.667 -102.668 -280.333 -308.001 -353c-86.667 -31.333 -180 -47 -280 -47h-119v178h119c158 0 278 40.333 360 121c33.333 32.667 50 66.334 50 101.001c0 32 -16.333 64.333 -49 97c-79.333 79.333 -199.666 119 -360.999 119h-92v394h183v-216
c81.333 -8 157 -26.667 227 -56c180 -74.667 270 -187.334 270 -338.001z" />
    <glyph glyph-name="egrave" unicode="&#xe8;" horiz-adv-x="1388" 
d="M1351 0h-1227v1220h794v-178h-599v-340h814v-178h-814v-339h1031zM165 2054l956 -469l-60 -103l-972 411z" />
    <glyph glyph-name="eacute" unicode="&#xe9;" horiz-adv-x="1388" 
d="M1351 0h-1227v1220h794v-178h-599v-340h814v-178h-814v-339h1031zM1048 2049l76 -162l-972 -411l-60 103z" />
    <glyph glyph-name="ecircumflex" unicode="&#xea;" horiz-adv-x="1388" 
d="M1351 0h-1227v1220h794v-178h-599v-340h814v-178h-814v-339h1031zM1122 1598l-136 -100l-357 397l-356 -400l-130 103l486 513l65 -70z" />
    <glyph glyph-name="edieresis" unicode="&#xeb;" horiz-adv-x="1388" 
d="M1351 0h-1227v1220h794v-178h-599v-340h814v-178h-814v-339h1031zM159 1545v173h173v-173h-173zM629 1545v173l173 1v-174h-173z" />
    <glyph glyph-name="igrave" unicode="&#xec;" horiz-adv-x="610" 
d="M408 1220l-1 -1220h-203l-1 1220h205zM-122 2054l956 -469l-60 -103l-972 411z" />
    <glyph glyph-name="iacute" unicode="&#xed;" horiz-adv-x="610" 
d="M408 1220l-1 -1220h-203l-1 1220h205zM731 2049l76 -162l-972 -411l-60 103z" />
    <glyph glyph-name="icircumflex" unicode="&#xee;" horiz-adv-x="610" 
d="M408 1220l-1 -1220h-203l-1 1220h205zM787 1582l-136 -100l-357 397l-356 -400l-130 103l486 513l65 -70z" />
    <glyph glyph-name="idieresis" unicode="&#xef;" horiz-adv-x="610" 
d="M408 1220l-1 -1220h-203l-1 1220h205zM-16 1545v173h173v-173h-173zM454 1545v173l173 1v-174h-173z" />
    <glyph glyph-name="ntilde" unicode="&#xf1;" horiz-adv-x="1782" 
d="M1598 1226v-1318l-156 114l-1156 885v-907h-194v1269l1317 -999v956h189zM985 1491l-323 259l-279 -197l-83 116l351 243l313 -248l262 189l89 -119z" />
    <glyph glyph-name="ograve" unicode="&#xf2;" horiz-adv-x="1496" 
d="M778 -54c-180 0 -336.666 63.001 -469.999 189.001c-59.333 56 -106 127.333 -140 214c-32 81.333 -48 164.666 -48 249.999c0 182.667 64.167 338.167 192.5 466.5s283.833 192.5 466.5 192.5c182 0 336.167 -62.833 462.5 -188.5s189.166 -282.5 188.499 -470.5
c0 -187.333 -62.667 -342 -188 -464c-129.333 -126 -284 -189 -464 -189zM443.001 940.001c-90 -90.667 -135 -204.334 -135 -341.001c0 -132.667 45 -244 135 -334c100.667 -101.333 212.334 -152 335.001 -152s229 45 319 135c96.667 96.667 145 213.667 145 351
c0 140.667 -43.333 254.334 -130 341.001c-96.667 96.667 -208 145 -334 145c-126.667 0 -235.334 -45.333 -326.001 -136zM302.001 2054l956 -469l-60 -103l-972 411z" />
    <glyph glyph-name="oacute" unicode="&#xf3;" horiz-adv-x="1496" 
d="M778 -54c-180 0 -336.666 63.001 -469.999 189.001c-59.333 56 -106 127.333 -140 214c-32 81.333 -48 164.666 -48 249.999c0 182.667 64.167 338.167 192.5 466.5s283.833 192.5 466.5 192.5c182 0 336.167 -62.833 462.5 -188.5s189.166 -282.5 188.499 -470.5
c0 -187.333 -62.667 -342 -188 -464c-129.333 -126 -284 -189 -464 -189zM443.001 940.001c-90 -90.667 -135 -204.334 -135 -341.001c0 -132.667 45 -244 135 -334c100.667 -101.333 212.334 -152 335.001 -152s229 45 319 135c96.667 96.667 145 213.667 145 351
c0 140.667 -43.333 254.334 -130 341.001c-96.667 96.667 -208 145 -334 145c-126.667 0 -235.334 -45.333 -326.001 -136zM1155 2049l76 -162l-972 -411l-60 103z" />
    <glyph glyph-name="ocircumflex" unicode="&#xf4;" horiz-adv-x="1496" 
d="M778 -54c-180 0 -336.666 63.001 -469.999 189.001c-59.333 56 -106 127.333 -140 214c-32 81.333 -48 164.666 -48 249.999c0 182.667 64.167 338.167 192.5 466.5s283.833 192.5 466.5 192.5c182 0 336.167 -62.833 462.5 -188.5s189.166 -282.5 188.499 -470.5
c0 -187.333 -62.667 -342 -188 -464c-129.333 -126 -284 -189 -464 -189zM443.001 940.001c-90 -90.667 -135 -204.334 -135 -341.001c0 -132.667 45 -244 135 -334c100.667 -101.333 212.334 -152 335.001 -152s229 45 319 135c96.667 96.667 145 213.667 145 351
c0 140.667 -43.333 254.334 -130 341.001c-96.667 96.667 -208 145 -334 145c-126.667 0 -235.334 -45.333 -326.001 -136zM1243 1582l-136 -100l-357 397l-356 -400l-130 103l486 513l65 -70z" />
    <glyph glyph-name="otilde" unicode="&#xf5;" horiz-adv-x="1496" 
d="M778 -54c-180 0 -336.666 63.001 -469.999 189.001c-59.333 56 -106 127.333 -140 214c-32 81.333 -48 164.666 -48 249.999c0 182.667 64.167 338.167 192.5 466.5s283.833 192.5 466.5 192.5c182 0 336.167 -62.833 462.5 -188.5s189.166 -282.5 188.499 -470.5
c0 -187.333 -62.667 -342 -188 -464c-129.333 -126 -284 -189 -464 -189zM443.001 940.001c-90 -90.667 -135 -204.334 -135 -341.001c0 -132.667 45 -244 135 -334c100.667 -101.333 212.334 -152 335.001 -152s229 45 319 135c96.667 96.667 145 213.667 145 351
c0 140.667 -43.333 254.334 -130 341.001c-96.667 96.667 -208 145 -334 145c-126.667 0 -235.334 -45.333 -326.001 -136zM918.001 1491l-323 259l-279 -197l-83 116l351 243l313 -248l262 189l89 -119z" />
    <glyph glyph-name="odieresis" unicode="&#xf6;" horiz-adv-x="1496" 
d="M778 -54c-180 0 -336.666 63.001 -469.999 189.001c-59.333 56 -106 127.333 -140 214c-32 81.333 -48 164.666 -48 249.999c0 182.667 64.167 338.167 192.5 466.5s283.833 192.5 466.5 192.5c182 0 336.167 -62.833 462.5 -188.5s189.166 -282.5 188.499 -470.5
c0 -187.333 -62.667 -342 -188 -464c-129.333 -126 -284 -189 -464 -189zM443.001 940.001c-90 -90.667 -135 -204.334 -135 -341.001c0 -132.667 45 -244 135 -334c100.667 -101.333 212.334 -152 335.001 -152s229 45 319 135c96.667 96.667 145 213.667 145 351
c0 140.667 -43.333 254.334 -130 341.001c-96.667 96.667 -208 145 -334 145c-126.667 0 -235.334 -45.333 -326.001 -136zM427.001 1545v173h173v-173h-173zM897.001 1545v173l173 1v-174h-173z" />
    <glyph glyph-name="divide" unicode="&#xf7;" horiz-adv-x="1064" 
d="M610 443v-162h-173v162h173zM610 1210v-162h-173v163zM961 853v-173h-875v173h875z" />
    <glyph glyph-name="oslash" unicode="&#xf8;" horiz-adv-x="1496" 
d="M1156 1118c28 -21.333 47.666 -37.668 58.999 -49.001c126 -126 189 -282.667 189 -470s-62.667 -342 -188 -464c-129.333 -126 -284.333 -189 -465 -189c-90 0 -173 16 -249 48l-124 -210l-157 86l125 211c-14 13.333 -35.667 31.333 -65 54
c-60.667 60.667 -107 132 -139 214c-33.333 84.667 -50 168.334 -50 251.001c0 182 64.667 337.333 194 466s284.333 193 465 193c86.667 0 169.334 -16.333 248.001 -49l108 189l157 -92zM1064 960.998l-469.998 -809.999c55.333 -18 107.666 -27 156.999 -27
c128 0 239.167 46.833 333.5 140.5s141.166 205.167 140.499 334.5c-0.666992 66.667 -13 129 -37 187c-20 49.333 -54.333 100.666 -103 153.999c-5.33301 8.66699 -12.333 15.667 -21 21zM907.001 1053c-49.333 14.667 -101.334 21.999 -156.001 21.999
c-58.667 0 -118 -10 -178 -30c-71.333 -24 -121.333 -56.333 -150 -97c-1.33301 -2 -3.66602 -4.66699 -6.99902 -8c-98.667 -97.333 -147.667 -211 -147 -341c0.666992 -125.333 49.667 -236.666 147 -333.999c3.33301 -4 10.333 -11.333 21 -22z" />
    <glyph glyph-name="ugrave" unicode="&#xf9;" 
d="M775 -49c-184 0 -339 61.333 -465 184c-59.333 58 -107 130.333 -143 217c-34 82.667 -51 167 -51 253v615h195v-615c0 -142 43.333 -255.333 130 -340c92 -90 203.333 -135 334 -135c131.333 0 241.5 46.167 330.5 138.5s133.5 204.5 133.5 336.5v615h195v-615
c0 -187.333 -64.667 -344 -194 -470c-126 -122.667 -281 -184 -465 -184zM302 2054l956 -469l-60 -103l-972 411z" />
    <glyph glyph-name="uacute" unicode="&#xfa;" 
d="M775 -49c-184 0 -339 61.333 -465 184c-59.333 58 -107 130.333 -143 217c-34 82.667 -51 167 -51 253v615h195v-615c0 -142 43.333 -255.333 130 -340c92 -90 203.333 -135 334 -135c131.333 0 241.5 46.167 330.5 138.5s133.5 204.5 133.5 336.5v615h195v-615
c0 -187.333 -64.667 -344 -194 -470c-126 -122.667 -281 -184 -465 -184zM1190 2049l76 -162l-972 -411l-60 103z" />
    <glyph glyph-name="ucircumflex" unicode="&#xfb;" 
d="M775 -49c-184 0 -339 61.333 -465 184c-59.333 58 -107 130.333 -143 217c-34 82.667 -51 167 -51 253v615h195v-615c0 -142 43.333 -255.333 130 -340c92 -90 203.333 -135 334 -135c131.333 0 241.5 46.167 330.5 138.5s133.5 204.5 133.5 336.5v615h195v-615
c0 -187.333 -64.667 -344 -194 -470c-126 -122.667 -281 -184 -465 -184zM1265 1582l-136 -100l-357 397l-356 -400l-130 103l486 513l65 -70z" />
    <glyph glyph-name="udieresis" unicode="&#xfc;" 
d="M775 -49c-184 0 -339 61.333 -465 184c-59.333 58 -107 130.333 -143 217c-34 82.667 -51 167 -51 253v615h195v-615c0 -142 43.333 -255.333 130 -340c92 -90 203.333 -135 334 -135c131.333 0 241.5 46.167 330.5 138.5s133.5 204.5 133.5 336.5v615h195v-615
c0 -187.333 -64.667 -344 -194 -470c-126 -122.667 -281 -184 -465 -184zM440 1545v173h173v-173h-173zM910 1545v173l173 1v-174h-173z" />
    <glyph glyph-name="ydieresis" unicode="&#xff;" horiz-adv-x="1269" 
d="M945 -1042v972l-983 1216l141 112l842 -1037v1037h194v-2300h-194zM227 1545v173h173v-173h-173zM697 1545v173l173 1v-174h-173z" />
    <glyph glyph-name="dotlessi" unicode="&#x131;" horiz-adv-x="610" 
d="M408 1220l-1 -1220h-203l-1 1220h205z" />
    <glyph glyph-name="OE" unicode="&#x152;" horiz-adv-x="3683" 
d="M2241 216h1318l1 -216h-1535v421c-35.333 -61.333 -80.333 -119 -135 -173c-202.667 -201.333 -442 -302 -718 -302c-178 0 -345 46 -501 138c-168.667 99.333 -303.667 239 -405 419c-108.667 194 -163 404.333 -163 631c0 172 32.333 336 97 492
c61.333 150 147.333 280.333 258 391c203.333 203.333 441.333 305 714 305c176 0 343.667 -46 503 -138c86.667 -50 158.667 -105 216 -165s102 -117.333 134 -172v399h1080v-216h-864v-757l1091 1v-216h-1090zM1172 162c214 0 401.334 80.334 562.001 241.001
c123.333 123.333 208.333 275.333 255 456c24 90 36 181.667 36 275c0 291.333 -97.333 534.333 -292 729c-162 162 -349 243 -561 243c-214 0 -401.333 -81 -562 -243c-194 -196 -291 -439.333 -291 -730c0 -292.667 97 -535.334 291 -728.001
c163.333 -162 350.666 -243 561.999 -243z" />
    <glyph glyph-name="oe" unicode="&#x153;" horiz-adv-x="2430" 
d="M1345 173h993.001v-173h-1166v151l-11 -11c-123.333 -122 -271 -183 -443 -183c-174 0 -321.833 60.833 -443.5 182.5s-182.5 269.5 -182.5 443.5s60.833 322 182.5 444s269.5 183 443.5 183c173.333 0 320.666 -61.333 441.999 -184c8 -8 12 -11.667 12 -11v151h756
v-172h-583v-324h788v-173l-788 -1v-323zM718.001 130c126 0.666992 233.167 44.833 321.5 132.5s132.5 194.5 132.5 320.5c0 126.667 -44 234 -132 322s-195.333 132 -322 132c-123.333 0 -229.5 -44.833 -318.5 -134.5s-133.833 -196.167 -134.5 -319.5
c-0.666992 -122.667 44 -229 134 -319s196.333 -134.667 319 -134z" />
    <glyph glyph-name="Ydieresis" unicode="&#x178;" horiz-adv-x="1841" 
d="M1620 2338l205 -97l-1172 -2338l-216 97l373 713l-783 1529l216 85l686 -1387zM578 2360v173h173v-173h-173zM1048 2360v173l173 1v-174h-173z" />
    <glyph glyph-name="florin" unicode="&#x192;" horiz-adv-x="956" 
d="M594 1042v-1134h-508v178h330v956h-259v178h259v1134h507v-178h-329v-956h265v-178h-265z" />
    <glyph glyph-name="circumflex" unicode="&#x2c6;" horiz-adv-x="1134" 
d="M1049 2511l-136 -100l-357 397l-356 -400l-130 103l486 513l65 -70z" />
    <glyph glyph-name="caron" unicode="&#x2c7;" horiz-adv-x="1134" 
d="M491 2414l-426 443l135 123l356 -399l357 399l129 -123l-421 -443h-130z" />
    <glyph glyph-name="ring" unicode="&#x2da;" horiz-adv-x="886" 
d="M788 2603c0 -94.667 -61.667 -165.667 -185 -213c-52.667 -20 -108 -30 -166 -30c-120 0 -217 36 -291 108c-40 38.667 -60 83.667 -60 135c0 55.333 21 104 63 146c68 68 164 102 288 102c58 0 113 -9.66699 165 -29c124 -46 186 -119 186 -219zM437 2479
c82 0 144.332 21.333 186.999 64c19.333 19.333 29 39.333 29 60s-7 40.334 -21 59c-46.667 46.667 -111.667 70 -195 70c-81.333 0 -146 -23.333 -194 -70c-14.667 -19.333 -22 -39 -22 -59c0 -16.667 7.33301 -34.667 22 -54c46.667 -46.667 111.334 -70 194.001 -70z" />
    <glyph glyph-name="tilde" unicode="&#x2dc;" horiz-adv-x="1496" 
d="M923 2387l-323 259l-279 -197l-83 116l351 243l313 -248l262 189l89 -119z" />
    <glyph glyph-name="hungarumlaut" unicode="&#x2dd;" horiz-adv-x="1501" 
d="M1515 -544c185.333 -185.333 278.004 -416.332 278.004 -692.999c0 -262.667 -99 -498.334 -297 -707.001c-4.66699 -5.33301 -11.334 -11.666 -20.001 -18.999c-118.667 -101.333 -223 -170 -313 -206c-120 -48 -245 -72 -375 -72c-276.667 0 -507.667 92.667 -693 278
l-19 19l-7 8c-4.66699 4.66699 -8.66699 8.33398 -12 11.001c-185.333 186.667 -278 416 -278 688c0 279.333 98.667 517.666 296 714.999c173.333 173.333 380.666 270 621.999 290v183c-149.333 23.333 -273.333 84.666 -372 183.999c-130 130 -195.333 284.667 -196 464
c-0.666992 181.333 63.666 336.5 192.999 465.5s284.666 193.5 465.999 193.5c143.333 0 275 -43 395 -129l70 70l124 -135l-65 -65c90 -126.667 135 -260 135 -400c0 -180.667 -64.667 -335.667 -194 -465c-98.667 -98.667 -223 -159.667 -373 -183v-183
c233.333 -14 431.333 -103.667 594 -269l11 -11c6.66699 -8 16.667 -18.667 30 -32zM448.004 265.001c74 -71.333 156.999 -114.668 248.999 -130.001v81h183v-81c94 19.333 175.667 63.333 245 132c92.667 92 139 202.667 139 332c0 102 -29 192 -87 270l-54 -59l-130 124
l60 65c-79.333 50.667 -167.666 76 -264.999 76c-132.667 0 -246 -47 -340 -141c-6.66699 -5.33301 -11.667 -9.66602 -15 -12.999c-80 -80 -120 -187.333 -120 -322c0 -136 45 -247.333 135 -334zM788.003 -2057c227.333 0 421 79.999 581 239.999s240 353.333 240 580
c0 231.333 -79 426 -237 584c-141.333 141.333 -305.333 220.333 -492 237v-81h-183v81c-185.333 -16 -349.333 -95 -492 -237l-17 -17c-150.667 -150.667 -226 -339.667 -226 -567s81 -421.666 243 -582.999c158.667 -158 353 -237 583 -237z" />
    <glyph glyph-name="endash" unicode="&#x2013;" horiz-adv-x="1048" 
d="M86 680v173h875v-173h-875z" />
    <glyph glyph-name="emdash" unicode="&#x2014;" horiz-adv-x="1685" 
d="M135 680v173h1415v-173h-1415z" />
    <glyph glyph-name="quoteleft" unicode="&#x2018;" horiz-adv-x="367" 
d="M362 1998l-97 -97l-298 216l153 124z" />
    <glyph glyph-name="quoteright" unicode="&#x2019;" horiz-adv-x="367" 
d="M0 1998l243 243l152 -124l-298 -216z" />
    <glyph glyph-name="quotesinglbase" unicode="&#x201a;" horiz-adv-x="481" 
d="M0 6l243 242l151 -124l-296 -216z" />
    <glyph glyph-name="quotedblleft" unicode="&#x201c;" horiz-adv-x="751" 
d="M362 1998l-97 -97l-298 216l153 124zM751 1998l-98 -97l-297 216l152 124z" />
    <glyph glyph-name="quotedblright" unicode="&#x201d;" horiz-adv-x="751" 
d="M383 1998l243 243l152 -124l-297 -216zM-5 1998l243 243l151 -124l-297 -216z" />
    <glyph glyph-name="quotedblbase" unicode="&#x201e;" horiz-adv-x="751" 
d="M383 0l243 243l152 -124l-296 -216zM-6 0l244 243l151 -124l-297 -217z" />
    <glyph glyph-name="dagger" unicode="&#x2020;" horiz-adv-x="1193" 
d="M1037 1944v-184h-350l-1 -880h-184l-1 880h-343l-1 185h345v415h184v-415z" />
    <glyph glyph-name="daggerdbl" unicode="&#x2021;" horiz-adv-x="1193" 
d="M502 1220h-345v184h345l-1 356h-343l-1 185h345v415h184v-415l351 -1v-184h-350l-1 -356h351v-184h-351v-340h-184v340z" />
    <glyph glyph-name="bullet" unicode="&#x2022;" horiz-adv-x="1345" 
d="M648 853c116 0 206.333 -32.334 271 -97.001c35.333 -35.333 53 -76.666 53 -123.999c0 -44 -18 -84.333 -54 -121c-62.667 -63.333 -152.667 -95 -270 -95c-110.667 0 -196.667 31 -258 93c-36.667 37.333 -55 78.333 -55 123c0 88 56.333 153 169 195
c46.667 17.333 94.667 26 144 26z" />
    <glyph glyph-name="ellipsis" unicode="&#x2026;" horiz-adv-x="1620" 
d="M103 0v173h172l-1 -173h-171zM734 0v173h173v-173h-173zM1372 0v173h172v-173h-172z" />
    <glyph glyph-name="perthousand" unicode="&#x2030;" horiz-adv-x="2803" 
d="M1420 724c101.333 0 187.998 -36 259.998 -108s107.667 -158.667 107 -260c-0.666992 -103.333 -36.167 -191.166 -106.5 -263.499s-157.166 -108.5 -260.499 -108.5c-105.333 0 -193.666 35.667 -264.999 107s-107 159.666 -107 264.999c0 104 36 191.333 108 262
s160 106 264 106zM1421 162c52.667 0 97.168 19.0029 133.501 57.0029s54.5 83.667 54.5 137c0 48.667 -15 88 -45 118c-6 6 -10.667 10 -14 12c-2.66699 4.66699 -7 9.66699 -13 15c-30 29.333 -69 43.666 -117 42.999c-52.667 -0.666992 -93.334 -15.334 -122.001 -44.001
c-6 -4.66699 -10.333 -9.33398 -13 -14.001c-39.333 -40 -59 -83.333 -59 -130c-0.666992 -51.333 18.833 -96.5 58.5 -135.5s85.167 -58.5 136.5 -58.5zM1463 1988l157 -94l-1112 -1964l-157 92zM507.999 1199c-102 0 -190.335 36.001 -265.002 108.001
c-72 69.333 -108 155.666 -108 258.999c0 105.333 35.833 193.833 107.5 265.5s160.167 107.5 265.5 107.5c104.667 0 192.834 -35.833 264.501 -107.5s107.5 -160.167 107.5 -265.5c0 -102.667 -36.167 -189.5 -108.5 -260.5s-160.166 -106.5 -263.499 -106.5z
M318.997 1566c0 -51.333 18.6689 -95.668 56.002 -133.001s81.666 -56 132.999 -56c52.667 0 98.167 18.333 136.5 55s57.5 81.334 57.5 134.001c0 51.333 -19.5 96.5 -58.5 135.5s-84.167 58.5 -135.5 58.5c-52.667 0 -97.334 -19.167 -134.001 -57.5
s-55 -83.833 -55 -136.5zM2300 724.002c102 0 189.001 -35.834 261.001 -107.501s107.667 -158.5 107 -260.5c-0.666992 -104 -36.334 -192 -107 -264c-70.667 -72 -157.667 -108 -261 -108c-104.667 0 -192.834 35.833 -264.5 107.5
c-71.667 71.667 -107.5 159.834 -107.5 264.501c0 102.667 35.667 189.667 107 261s159.666 107 264.999 107zM2300 162.001c53.333 0 98.166 18.999 134.5 56.999c36.333 38 54.5 83.667 54.5 137c0 60.667 -19.667 104 -59 130l-12 15c-29.333 29.333 -68.666 44 -118 44
c-51.333 0 -92 -14.667 -122 -44l-9 -9l-4 -6c-39.333 -39.333 -59 -82.666 -59 -129.999c0 -51.333 19.5 -96.5 58.5 -135.5s84.167 -58.5 135.5 -58.5z" />
    <glyph glyph-name="guilsinglleft" unicode="&#x2039;" horiz-adv-x="826" 
d="M589 1068l129 -128l-405 -357l405 -356l-129 -130l-508 486l65 65z" />
    <glyph glyph-name="guilsinglright" unicode="&#x203a;" horiz-adv-x="826" 
d="M211 1069l507 -486l-65 -65l-442 -421l-130 130l405 356l-405 357z" />
    <glyph glyph-name="fraction" unicode="&#x2044;" horiz-adv-x="1210" 
d="M-151 -913l1362 2333l155 -92l-1361 -2327z" />
    <glyph glyph-name="trademark" unicode="&#x2122;" horiz-adv-x="2257" 
d="M1129 1814c342.667 0 605.33 -91.667 787.997 -275c100.667 -101.333 151 -211 151 -329c0 -119.333 -50.333 -229.333 -151 -330c-116 -116 -275.333 -196.667 -478 -242c-97.333 -22 -200.666 -33 -309.999 -33c-341.333 0 -604.333 91.667 -789 275
c-100.667 100 -151 210 -151 330c0 119.333 50 229 150 329c108.667 108.667 255.334 186 440.001 232c112.667 28.667 229.334 43 350.001 43zM1129 734c128.667 0 252.999 18.666 372.999 55.999c137.333 42.667 246 104 326 184c74 74 111 153 111 237
c0 94 -47 181 -141 261c-74 63.333 -164 113 -270 149c-123.333 42.667 -256.333 64 -399 64c-305.333 0 -537.666 -79.333 -696.999 -238c-75.333 -74.667 -113 -153.667 -113 -237s37.667 -162.666 113 -237.999c102.667 -102.667 244 -173 424 -211
c87.333 -18 178.333 -27 273 -27zM1307 1064l178 270l119 173v-594h-130v172l-167 -248l-173 248l-1 -172l-129 1v582l119 -168zM566.995 1301v130h362v-130h-114v-388l-129 1v387h-119z" />
    <glyph glyph-name="notequal" unicode="&#x2260;" horiz-adv-x="1091" 
d="M567 1004l173 260l156 -92l-113 -168l178 -1v-171h-286l-86 -135h372v-173h-479l-185 -296l-157 85l129 211h-183v173h292l86 135h-378v172h481z" />
    <glyph glyph-name="fi" unicode="&#xf001;" horiz-adv-x="886" 
d="M1015 1771v-183h-183v183h183zM1015 0h-183v1042h-260l-1 -1042h-182v1042h-259v184h259v1134h507v-184h-324v-951l443 1v-1226z" />
    <glyph glyph-name="fl" unicode="&#xf002;" horiz-adv-x="1274" 
d="M772 2176h-329v-950h258l1 -184h-259v-1042h-184v1042h-259v184h259v1134h691v-2176h324v-184h-502v2176z" />
    <glyph glyph-name=".null" horiz-adv-x="0" 
 />
    <glyph glyph-name="glyph2" horiz-adv-x="222" 
 />
    <glyph glyph-name="HT" horiz-adv-x="222" 
 />
    <glyph glyph-name="nonmarkingreturn" horiz-adv-x="222" 
 />
    </font>
</defs>
</svg>
